<svg width="1920" height="1075" viewBox="0 0 1920 1075" fill="none" xmlns="http://www.w3.org/2000/svg">
<g clip-path="url(#clip0_2012_27)">
<rect width="1920" height="1075" fill="#1F3B50"/>
<path d="M1226.91 590.222C1331.12 93.1231 1750.36 308.394 1946.95 478.167L2031.48 705.227L2110.25 1063.86L1825.51 1181.43C1582.56 1191.48 1122.7 1087.32 1226.91 590.222Z" fill="white" fill-opacity="0.34"/>
<path d="M372.91 1026.94C372.95 1028.28 372.977 1029.63 372.99 1030.98L369.49 1031.01C369.497 1031.67 369.5 1032.34 369.5 1033C369.5 1033.66 369.497 1034.33 369.49 1034.99L372.99 1035.02C372.977 1036.37 372.95 1037.72 372.91 1039.06L369.411 1038.96C369.372 1040.27 369.319 1041.59 369.254 1042.9L372.75 1043.08C372.683 1044.42 372.603 1045.76 372.509 1047.1L369.018 1046.86C368.926 1048.18 368.821 1049.49 368.702 1050.81L372.188 1051.12C372.068 1052.46 371.935 1053.79 371.788 1055.13L368.309 1054.74C368.164 1056.06 368.007 1057.37 367.836 1058.67L371.307 1059.13C371.133 1060.46 370.946 1061.79 370.745 1063.12L367.284 1062.6C367.088 1063.9 366.878 1065.2 366.656 1066.5L370.105 1067.09C369.878 1068.42 369.638 1069.74 369.385 1071.06L365.947 1070.4C365.698 1071.7 365.436 1072.99 365.161 1074.28L368.585 1075.01C368.305 1076.32 368.013 1077.63 367.708 1078.94L364.3 1078.14C363.999 1079.43 363.685 1080.71 363.359 1081.99L366.751 1082.85C366.419 1084.16 366.074 1085.45 365.717 1086.75L362.343 1085.82C361.992 1087.09 361.629 1088.36 361.253 1089.62L364.608 1090.62C364.224 1091.91 363.829 1093.19 363.42 1094.47L360.086 1093.41C359.685 1094.67 359.271 1095.92 358.845 1097.17L362.158 1098.3C361.725 1099.57 361.28 1100.84 360.822 1102.1L357.532 1100.9C357.082 1102.15 356.62 1103.38 356.145 1104.62L359.412 1105.87C358.93 1107.13 358.435 1108.37 357.929 1109.62L354.687 1108.3C354.189 1109.52 353.68 1110.74 353.158 1111.95L356.374 1113.34C355.844 1114.57 355.302 1115.8 354.749 1117.02L351.56 1115.58C351.016 1116.78 350.46 1117.98 349.892 1119.17L353.053 1120.68C352.477 1121.89 351.889 1123.1 351.289 1124.3L348.157 1122.74C347.568 1123.92 346.967 1125.1 346.356 1126.27L349.458 1127.89C348.836 1129.08 348.203 1130.26 347.559 1131.44L344.487 1129.76C343.854 1130.92 343.21 1132.08 342.555 1133.23L345.595 1134.96C344.93 1136.13 344.255 1137.29 343.568 1138.44L340.56 1136.65C339.884 1137.79 339.198 1138.92 338.501 1140.04L341.476 1141.89C340.769 1143.03 340.051 1144.16 339.323 1145.29L336.381 1143.39C335.666 1144.5 334.939 1145.61 334.203 1146.71L337.11 1148.66C336.362 1149.77 335.603 1150.88 334.834 1151.99L331.962 1149.98C331.207 1151.07 330.442 1152.15 329.667 1153.22L332.503 1155.27C331.717 1156.36 330.921 1157.44 330.115 1158.51L327.315 1156.41C326.521 1157.47 325.717 1158.52 324.903 1159.57L327.666 1161.72C326.843 1162.78 326.01 1163.83 325.168 1164.88L322.442 1162.68C321.613 1163.71 320.775 1164.73 319.927 1165.75L322.615 1167.99C321.754 1169.02 320.884 1170.05 320.004 1171.07L317.355 1168.78C316.492 1169.78 315.619 1170.77 314.738 1171.76L317.349 1174.09C316.455 1175.09 315.553 1176.09 314.641 1177.07L312.07 1174.7C311.171 1175.67 310.264 1176.64 309.347 1177.6L311.879 1180.02C310.954 1180.99 310.02 1181.95 309.077 1182.9L306.585 1180.45C305.657 1181.39 304.72 1182.32 303.774 1183.25L306.225 1185.75C305.266 1186.69 304.298 1187.62 303.322 1188.55L300.911 1186.02C299.953 1186.93 298.987 1187.83 298.013 1188.73L300.383 1191.3C299.396 1192.21 298.401 1193.11 297.398 1194L295.069 1191.39C294.079 1192.27 293.081 1193.15 292.075 1194.02L294.362 1196.67C293.349 1197.54 292.327 1198.41 291.297 1199.27L289.052 1196.59C288.037 1197.43 287.014 1198.28 285.984 1199.11L288.187 1201.83C287.143 1202.68 286.09 1203.52 285.03 1204.35L282.869 1201.6C281.83 1202.41 280.783 1203.22 279.729 1204.02L281.847 1206.81C280.78 1207.62 279.705 1208.42 278.622 1209.22L276.547 1206.4C275.479 1207.19 274.403 1207.97 273.32 1208.74L275.353 1211.59C274.263 1212.37 273.165 1213.14 272.061 1213.9L270.071 1211.02C268.983 1211.77 267.887 1212.52 266.784 1213.26L268.73 1216.17C267.613 1216.91 266.489 1217.65 265.358 1218.39L263.455 1215.45C262.345 1216.17 261.229 1216.88 260.106 1217.58L261.965 1220.55C260.829 1221.26 259.686 1221.96 258.537 1222.66L256.722 1219.67C255.588 1220.36 254.447 1221.04 253.299 1221.71L255.071 1224.73C253.915 1225.41 252.753 1226.08 251.584 1226.74L249.857 1223.7C248.706 1224.35 247.549 1225 246.386 1225.63L248.069 1228.7C246.891 1229.35 245.706 1229.99 244.516 1230.62L242.877 1227.53C241.707 1228.14 240.531 1228.76 239.349 1229.36L240.944 1232.48C239.751 1233.09 238.553 1233.69 237.348 1234.29L235.799 1231.15C234.609 1231.73 233.414 1232.31 232.213 1232.89L233.718 1236.05C232.507 1236.62 231.29 1237.19 230.067 1237.75L228.607 1234.57C227.405 1235.13 226.197 1235.67 224.984 1236.21L226.4 1239.41C225.172 1239.95 223.939 1240.48 222.7 1241.01L221.329 1237.79C220.108 1238.31 218.882 1238.82 217.651 1239.33L218.977 1242.57C217.738 1243.07 216.495 1243.57 215.246 1244.06L213.965 1240.81C212.731 1241.29 211.492 1241.77 210.248 1242.24L211.484 1245.51C210.226 1245.99 208.963 1246.45 207.695 1246.91L206.505 1243.62C205.262 1244.07 204.014 1244.51 202.762 1244.95L203.908 1248.25C202.64 1248.69 201.368 1249.12 200.092 1249.55L198.991 1246.23C197.729 1246.64 196.463 1247.05 195.192 1247.46L196.247 1250.79C194.972 1251.2 193.692 1251.59 192.407 1251.98L191.397 1248.63C190.129 1249.01 188.856 1249.38 187.579 1249.75L188.544 1253.11C187.252 1253.48 185.955 1253.85 184.655 1254.2L183.735 1250.82C182.457 1251.17 181.176 1251.51 179.89 1251.84L180.764 1255.23C179.467 1255.57 178.166 1255.89 176.861 1256.21L176.032 1252.81C174.742 1253.13 173.448 1253.43 172.151 1253.73L172.934 1257.14C171.626 1257.44 170.314 1257.74 168.998 1258.02L168.26 1254.6C166.967 1254.88 165.67 1255.15 164.37 1255.41L165.063 1258.84C163.748 1259.11 162.429 1259.36 161.106 1259.61L160.458 1256.17C159.151 1256.42 157.841 1256.66 156.527 1256.89L157.13 1260.34C155.813 1260.57 154.493 1260.79 153.17 1261L152.612 1257.55C151.303 1257.76 149.991 1257.96 148.676 1258.16L149.189 1261.62C147.859 1261.82 146.525 1262 145.188 1262.18L144.721 1258.72C143.409 1258.89 142.094 1259.06 140.776 1259.22L141.199 1262.7C139.87 1262.86 138.537 1263.01 137.202 1263.16L136.824 1259.68C135.503 1259.82 134.18 1259.96 132.853 1260.08L133.186 1263.57C131.85 1263.69 130.511 1263.81 129.169 1263.92L128.88 1260.44C127.563 1260.55 126.242 1260.65 124.918 1260.74L125.162 1264.23C123.824 1264.32 122.483 1264.41 121.139 1264.48L120.94 1260.99C119.611 1261.07 118.279 1261.13 116.945 1261.19L117.099 1264.69C115.765 1264.75 114.428 1264.8 113.088 1264.84L112.977 1261.34C111.653 1261.38 110.326 1261.42 108.997 1261.44L109.064 1264.94C107.72 1264.97 106.373 1264.99 105.025 1264.99L105.003 1261.49C104.336 1261.5 103.668 1261.5 103 1261.5C102.332 1261.5 101.664 1261.5 100.997 1261.49L100.975 1264.99C99.6263 1264.99 98.28 1264.97 96.9362 1264.94L97.0024 1261.44C95.6732 1261.42 94.3465 1261.38 93.0223 1261.34L92.9119 1264.84C91.5721 1264.8 90.2349 1264.75 88.9002 1264.69L89.0548 1261.19C87.7206 1261.13 86.3889 1261.07 85.06 1260.99L84.8609 1264.48C83.5171 1264.41 82.176 1264.32 80.8376 1264.23L81.0814 1260.74C79.7579 1260.65 78.4371 1260.55 77.1192 1260.44L76.8309 1263.92C75.4889 1263.81 74.1497 1263.69 72.8135 1263.57L73.1465 1260.08C71.82 1259.96 70.4965 1259.82 69.176 1259.68L68.7981 1263.16C67.4626 1263.01 66.1302 1262.86 64.8009 1262.7L65.2237 1259.22C63.9057 1259.06 62.5908 1258.89 61.279 1258.72L60.8114 1262.18C59.4745 1262 58.1409 1261.82 56.8107 1261.62L57.3235 1258.16C56.0083 1257.96 54.6964 1257.76 53.3879 1257.55L52.83 1261C51.5065 1260.79 50.1864 1260.57 48.8697 1260.34L49.4726 1256.89C48.1588 1256.66 46.8484 1256.42 45.5417 1256.17L44.8935 1259.61C43.5708 1259.36 42.2517 1259.11 40.9363 1258.84L41.6297 1255.41C40.3293 1255.15 39.0327 1254.88 37.7398 1254.6L37.0013 1258.02C35.6854 1257.73 34.3734 1257.44 33.0653 1257.14L33.8491 1253.73C32.5513 1253.43 31.2575 1253.13 29.9676 1252.81L29.1385 1256.21C27.8335 1255.89 26.5326 1255.57 25.2358 1255.23L26.1102 1251.84C24.8242 1251.51 23.5423 1251.17 22.2646 1250.82L21.345 1254.2C20.0443 1253.85 18.7479 1253.48 17.4558 1253.11L18.4208 1249.75C17.1438 1249.38 15.8712 1249.01 14.6029 1248.63L13.5928 1251.98C12.3082 1251.59 11.0281 1251.2 9.75252 1250.79L10.8078 1247.46C9.53685 1247.05 8.27049 1246.64 7.00879 1246.23L5.9082 1249.55C4.63142 1249.12 3.35933 1248.69 2.092 1248.25L3.23773 1244.95C1.98543 1244.51 0.737869 1244.07 -0.504868 1243.62L-1.69562 1246.91C-2.96341 1246.45 -4.22626 1245.99 -5.4841 1245.51L-4.24815 1242.24C-5.49214 1241.77 -6.73111 1241.29 -7.965 1240.81L-9.246 1244.06C-10.4949 1243.57 -11.7387 1243.07 -12.9772 1242.57L-11.6514 1239.33C-12.8826 1238.82 -14.1086 1238.31 -15.3293 1237.79L-16.7001 1241.01C-17.9389 1240.48 -19.1722 1239.95 -20.4001 1239.41L-18.9844 1236.21C-20.1973 1235.67 -21.4049 1235.12 -22.6069 1234.57L-24.0673 1237.75C-25.2899 1237.19 -26.5069 1236.62 -27.7182 1236.05L-26.213 1232.89C-27.414 1232.31 -28.6093 1231.73 -29.7987 1231.15L-31.3486 1234.29C-32.5529 1233.69 -33.7513 1233.09 -34.9439 1232.48L-33.3496 1229.36C-34.5315 1228.76 -35.7075 1228.14 -36.8774 1227.53L-38.5161 1230.62C-39.7065 1229.99 -40.8907 1229.35 -42.0688 1228.7L-40.3857 1225.63C-41.549 1225 -42.7061 1224.35 -43.857 1223.7L-45.5842 1226.74C-46.7527 1226.08 -47.9149 1225.41 -49.0706 1224.73L-47.2994 1221.71C-48.4469 1221.04 -49.5878 1220.36 -50.7222 1219.67L-52.5375 1222.66C-53.6865 1221.96 -54.8289 1221.26 -55.9646 1220.55L-54.1056 1217.58C-55.2289 1216.88 -56.3455 1216.17 -57.4553 1215.45L-59.3579 1218.39C-60.489 1217.65 -61.6132 1216.91 -62.7304 1216.17L-60.7842 1213.26C-61.8869 1212.52 -62.9826 1211.77 -64.0713 1211.02L-66.0608 1213.9C-67.1654 1213.14 -68.2628 1212.37 -69.3531 1211.59L-67.3205 1208.74C-68.4033 1207.97 -69.4787 1207.19 -70.5468 1206.4L-72.6224 1209.22C-73.7047 1208.42 -74.7797 1207.62 -75.8471 1206.81L-73.7287 1204.02C-74.7832 1203.22 -75.8301 1202.41 -76.8694 1201.59L-79.0302 1204.35C-80.0903 1203.52 -81.1427 1202.68 -82.1872 1201.83L-79.984 1199.11C-81.0144 1198.28 -82.0371 1197.43 -83.0518 1196.59L-85.2971 1199.27C-86.3269 1198.41 -87.3487 1197.54 -88.3624 1196.67L-86.0754 1194.02C-87.0814 1193.15 -88.0793 1192.27 -89.069 1191.39L-91.3977 1194C-92.4012 1193.11 -93.3965 1192.21 -94.3833 1191.3L-92.0133 1188.73C-92.9875 1187.83 -93.9534 1186.93 -94.9108 1186.02L-97.3217 1188.55C-98.2983 1187.62 -99.2663 1186.69 -100.226 1185.75L-97.7739 1183.25C-98.7196 1182.32 -99.6567 1181.39 -100.585 1180.45L-103.077 1182.9C-104.02 1181.95 -104.954 1180.99 -105.879 1180.02L-103.347 1177.6C-104.264 1176.64 -105.171 1175.67 -106.07 1174.7L-108.641 1177.07C-109.553 1176.09 -110.455 1175.09 -111.349 1174.09L-108.738 1171.76C-109.619 1170.77 -110.492 1169.78 -111.355 1168.78L-114.004 1171.07C-114.884 1170.05 -115.754 1169.02 -116.615 1167.99L-113.927 1165.75C-114.775 1164.73 -115.613 1163.71 -116.442 1162.68L-119.168 1164.88C-120.01 1163.83 -120.843 1162.78 -121.666 1161.72L-118.903 1159.57C-119.717 1158.52 -120.521 1157.47 -121.315 1156.41L-124.115 1158.51C-124.921 1157.44 -125.717 1156.36 -126.503 1155.27L-123.667 1153.22C-124.442 1152.15 -125.207 1151.07 -125.962 1149.98L-128.834 1151.99C-129.603 1150.88 -130.362 1149.77 -131.11 1148.66L-128.203 1146.71C-128.939 1145.61 -129.666 1144.5 -130.381 1143.39L-133.323 1145.29C-134.051 1144.16 -134.769 1143.03 -135.476 1141.89L-132.501 1140.04C-133.198 1138.92 -133.884 1137.79 -134.56 1136.65L-137.568 1138.44C-138.255 1137.29 -138.93 1136.13 -139.595 1134.96L-136.555 1133.23C-137.21 1132.08 -137.854 1130.92 -138.487 1129.76L-141.559 1131.44C-142.203 1130.26 -142.836 1129.08 -143.458 1127.89L-140.356 1126.27C-140.967 1125.1 -141.568 1123.92 -142.157 1122.74L-145.289 1124.3C-145.889 1123.1 -146.477 1121.89 -147.053 1120.68L-143.892 1119.17C-144.46 1117.98 -145.016 1116.78 -145.56 1115.58L-148.749 1117.02C-149.302 1115.8 -149.844 1114.57 -150.374 1113.34L-147.158 1111.95C-147.68 1110.74 -148.189 1109.52 -148.687 1108.3L-151.929 1109.62C-152.435 1108.37 -152.93 1107.13 -153.412 1105.87L-150.145 1104.62C-150.62 1103.38 -151.082 1102.15 -151.532 1100.9L-154.822 1102.1C-155.28 1100.84 -155.725 1099.57 -156.158 1098.3L-152.845 1097.17C-153.271 1095.92 -153.685 1094.67 -154.086 1093.41L-157.421 1094.47C-157.829 1093.19 -158.224 1091.91 -158.608 1090.62L-155.253 1089.62C-155.629 1088.36 -155.992 1087.09 -156.343 1085.82L-159.717 1086.75C-160.075 1085.45 -160.419 1084.16 -160.751 1082.85L-157.36 1081.99C-157.685 1080.71 -157.999 1079.43 -158.3 1078.14L-161.708 1078.94C-162.013 1077.63 -162.305 1076.32 -162.585 1075.01L-159.162 1074.28C-159.436 1072.99 -159.698 1071.7 -159.947 1070.4L-163.385 1071.06C-163.638 1069.74 -163.878 1068.42 -164.105 1067.09L-160.656 1066.5C-160.878 1065.2 -161.088 1063.9 -161.285 1062.6L-164.745 1063.12C-164.946 1061.79 -165.133 1060.46 -165.307 1059.13L-161.836 1058.67C-162.007 1057.37 -162.165 1056.06 -162.309 1054.74L-165.788 1055.12C-165.935 1053.79 -166.068 1052.46 -166.188 1051.12L-162.703 1050.81C-162.821 1049.49 -162.926 1048.18 -163.018 1046.86L-166.51 1047.1C-166.603 1045.76 -166.683 1044.42 -166.75 1043.08L-163.254 1042.9C-163.319 1041.59 -163.372 1040.27 -163.411 1038.96L-166.91 1039.06C-166.95 1037.72 -166.977 1036.37 -166.99 1035.02L-163.49 1034.99C-163.497 1034.33 -163.5 1033.66 -163.5 1033C-163.5 1032.34 -163.497 1031.67 -163.49 1031.01L-166.99 1030.98C-166.977 1029.63 -166.95 1028.28 -166.91 1026.94L-163.411 1027.04C-163.372 1025.73 -163.319 1024.41 -163.254 1023.1L-166.75 1022.92C-166.683 1021.58 -166.603 1020.24 -166.509 1018.9L-163.018 1019.14C-162.926 1017.82 -162.821 1016.51 -162.702 1015.19L-166.188 1014.88C-166.068 1013.54 -165.935 1012.21 -165.788 1010.87L-162.309 1011.26C-162.165 1009.94 -162.007 1008.63 -161.836 1007.33L-165.307 1006.87C-165.133 1005.54 -164.946 1004.21 -164.745 1002.88L-161.284 1003.4C-161.088 1002.1 -160.878 1000.8 -160.656 999.499L-164.105 998.908C-163.878 997.582 -163.638 996.26 -163.385 994.941L-159.947 995.602C-159.698 994.304 -159.436 993.01 -159.161 991.719L-162.585 990.99C-162.305 989.677 -162.013 988.368 -161.708 987.063L-158.3 987.859C-157.999 986.572 -157.685 985.29 -157.359 984.011L-160.751 983.146C-160.419 981.844 -160.074 980.545 -159.717 979.251L-156.343 980.183C-155.992 978.911 -155.629 977.643 -155.253 976.379L-158.608 975.381C-158.224 974.093 -157.829 972.809 -157.42 971.529L-154.086 972.592C-153.685 971.334 -153.271 970.08 -152.845 968.831L-156.158 967.702C-155.725 966.431 -155.28 965.165 -154.822 963.903L-151.532 965.096C-151.082 963.854 -150.619 962.617 -150.145 961.384L-153.412 960.128C-152.93 958.874 -152.435 957.625 -151.929 956.381L-148.687 957.701C-148.189 956.478 -147.68 955.259 -147.158 954.046L-150.374 952.664C-149.844 951.431 -149.302 950.202 -148.749 948.978L-145.56 950.421C-145.016 949.217 -144.46 948.019 -143.892 946.825L-147.053 945.323C-146.477 944.11 -145.889 942.902 -145.289 941.7L-142.157 943.262C-141.568 942.08 -140.967 940.904 -140.356 939.733L-143.458 938.113C-142.836 936.922 -142.203 935.737 -141.559 934.558L-138.487 936.235C-137.854 935.076 -137.21 933.922 -136.555 932.773L-139.595 931.039C-138.93 929.874 -138.255 928.714 -137.568 927.559L-134.56 929.349C-133.884 928.213 -133.198 927.082 -132.501 925.957L-135.476 924.113C-134.769 922.973 -134.051 921.838 -133.323 920.708L-130.381 922.605C-129.666 921.495 -128.939 920.391 -128.203 919.293L-131.11 917.344C-130.362 916.228 -129.603 915.118 -128.834 914.015L-125.962 916.015C-125.207 914.931 -124.442 913.853 -123.667 912.781L-126.503 910.73C-125.717 909.643 -124.921 908.562 -124.115 907.488L-121.315 909.588C-120.521 908.529 -119.717 907.477 -118.903 906.43L-121.666 904.282C-120.843 903.223 -120.01 902.171 -119.168 901.125L-116.442 903.32C-115.613 902.291 -114.775 901.268 -113.927 900.252L-116.615 898.01C-115.754 896.978 -114.884 895.952 -114.004 894.933L-111.355 897.22C-110.492 896.22 -109.619 895.227 -108.738 894.239L-111.349 891.908C-110.455 890.908 -109.553 889.914 -108.641 888.927L-106.07 891.301C-105.171 890.328 -104.264 889.361 -103.347 888.4L-105.879 885.984C-104.954 885.015 -104.02 884.052 -103.077 883.096L-100.585 885.554C-99.6566 884.612 -98.7195 883.677 -97.7738 882.749L-100.225 880.251C-99.2662 879.31 -98.2982 878.375 -97.3216 877.447L-94.9107 879.984C-93.9533 879.074 -92.9874 878.171 -92.0132 877.275L-94.3832 874.699C-93.3964 873.791 -92.4011 872.89 -91.3976 871.996L-89.0689 874.608C-88.0792 873.726 -87.0813 872.851 -86.0753 871.983L-88.3624 869.333C-87.3486 868.458 -86.3268 867.59 -85.297 866.729L-83.0517 869.414C-82.037 868.565 -81.0143 867.723 -79.9839 866.888L-82.1871 864.169C-81.1426 863.323 -80.0902 862.484 -79.0301 861.652L-76.8693 864.405C-75.83 863.589 -74.7831 862.781 -73.7286 861.979L-75.847 859.193C-74.7796 858.381 -73.7046 857.577 -72.6223 856.78L-70.5467 859.598C-69.4786 858.811 -68.4032 858.032 -67.3204 857.259L-69.353 854.41C-68.2627 853.632 -67.1653 852.862 -66.0607 852.099L-64.0712 854.978C-62.9825 854.226 -61.8868 853.481 -60.7841 852.743L-62.7303 849.834C-61.6131 849.087 -60.4889 848.347 -59.3578 847.614L-57.4553 850.552C-56.3454 849.833 -55.2288 849.122 -54.1055 848.418L-55.9645 845.452C-54.8288 844.74 -53.6864 844.036 -52.5374 843.339L-50.7221 846.331C-49.5877 845.643 -48.4468 844.962 -47.2993 844.289L-49.0705 841.27C-47.9148 840.592 -46.7526 839.922 -45.5841 839.259L-43.8569 842.303C-42.706 841.65 -41.5489 841.004 -40.3856 840.366L-42.0687 837.298C-40.8906 836.651 -39.7064 836.013 -38.516 835.382L-36.8773 838.475C-35.7074 837.855 -34.5314 837.243 -33.3495 836.638L-34.9438 833.522C-33.7512 832.912 -32.5528 832.309 -31.3484 831.715L-29.7986 834.853C-28.6092 834.265 -27.4139 833.686 -26.2129 833.114L-27.7181 829.954C-26.5068 829.377 -25.2898 828.808 -24.0672 828.246L-22.6068 831.427C-21.4047 830.875 -20.1972 830.331 -18.9842 829.794L-20.4 826.593C-19.1721 826.05 -17.9387 825.515 -16.7 824.988L-15.3291 828.208C-14.1084 827.688 -12.8824 827.177 -11.6512 826.673L-12.9771 823.433C-11.7385 822.926 -10.4947 822.427 -9.24585 821.936L-7.96484 825.193C-6.73094 824.708 -5.49196 824.231 -4.24799 823.761L-5.48392 820.487C-4.22607 820.012 -2.96323 819.545 -1.69543 819.086L-0.504684 822.378C0.738052 821.928 1.98563 821.486 3.23793 821.052L2.09219 817.745C3.35953 817.306 4.63162 816.875 5.9084 816.452L7.00899 819.775C8.27069 819.357 9.53705 818.947 10.808 818.545L9.75273 815.208C11.0283 814.804 12.3084 814.409 13.593 814.022L14.6031 817.373C15.8714 816.991 17.144 816.616 18.421 816.25L17.4561 812.886C18.7482 812.515 20.0446 812.153 21.3453 811.799L22.2648 815.176C23.5425 814.828 24.8244 814.488 26.1104 814.156L25.2361 810.767C26.5329 810.432 27.8338 810.106 29.1387 809.788L29.9679 813.188C31.2577 812.874 32.5516 812.567 33.8493 812.269L33.0655 808.858C34.3736 808.557 35.6857 808.265 37.0015 807.981L37.7401 811.402C39.0329 811.123 40.3296 810.852 41.6299 810.589L40.9365 807.159C42.252 806.893 43.5711 806.635 44.8938 806.386L45.542 809.825C46.8487 809.579 48.159 809.341 49.4729 809.111L48.87 805.664C50.1866 805.433 51.5067 805.211 52.8303 804.998L53.3882 808.453C54.6967 808.242 56.0086 808.039 57.3238 807.844L56.811 804.381C58.1412 804.184 59.4748 803.996 60.8117 803.816L61.2793 807.284C62.591 807.107 63.906 806.939 65.224 806.778L64.8012 803.304C66.1305 803.142 67.4629 802.989 68.7984 802.844L69.1763 806.323C70.4968 806.18 71.8203 806.045 73.1468 805.918L72.8138 802.434C74.15 802.306 75.4892 802.187 76.8312 802.076L77.1195 805.564C78.4374 805.455 79.7582 805.354 81.0817 805.262L80.8379 801.77C82.1763 801.677 83.5174 801.592 84.8612 801.515L85.0603 805.01C86.3893 804.934 87.7209 804.866 89.0551 804.807L88.9005 801.311C90.2352 801.252 91.5724 801.201 92.9122 801.159L93.0226 804.657C94.3468 804.615 95.6736 804.582 97.0027 804.557L96.9365 801.057C98.2803 801.032 99.6266 801.015 100.975 801.006L100.997 804.506C101.664 804.502 102.332 804.5 103 804.5C103.668 804.5 104.336 804.502 105.003 804.506L105.025 801.006C106.374 801.015 107.72 801.032 109.064 801.057L108.998 804.557C110.327 804.582 111.653 804.615 112.978 804.657L113.088 801.159C114.428 801.201 115.765 801.252 117.1 801.311L116.945 804.807C118.279 804.866 119.611 804.934 120.94 805.01L121.139 801.515C122.483 801.592 123.824 801.677 125.162 801.77L124.919 805.262C126.242 805.354 127.563 805.455 128.881 805.564L129.169 802.076C130.511 802.187 131.85 802.306 133.187 802.434L132.853 805.918C134.18 806.045 135.503 806.18 136.824 806.323L137.202 802.844C138.537 802.989 139.87 803.142 141.199 803.304L140.776 806.778C142.094 806.939 143.409 807.107 144.721 807.284L145.189 803.816C146.525 803.996 147.859 804.184 149.189 804.382L148.676 807.844C149.992 808.039 151.304 808.242 152.612 808.453L153.17 804.998C154.493 805.211 155.814 805.433 157.13 805.664L156.527 809.111C157.841 809.341 159.152 809.579 160.458 809.825L161.106 806.386C162.429 806.635 163.748 806.893 165.064 807.159L164.37 810.589C165.671 810.852 166.967 811.123 168.26 811.402L168.999 807.981C170.315 808.265 171.627 808.557 172.935 808.858L172.151 812.269C173.449 812.567 174.742 812.874 176.032 813.188L176.861 809.788C178.166 810.106 179.467 810.432 180.764 810.767L179.89 814.156C181.176 814.488 182.458 814.828 183.735 815.176L184.655 811.799C185.956 812.153 187.252 812.515 188.544 812.886L187.579 816.25C188.856 816.616 190.129 816.991 191.397 817.373L192.407 814.022C193.692 814.409 194.972 814.804 196.247 815.208L195.192 818.545C196.463 818.947 197.729 819.357 198.991 819.775L200.092 816.452C201.369 816.875 202.641 817.306 203.908 817.745L202.762 821.052C204.015 821.486 205.262 821.928 206.505 822.378L207.696 819.086C208.963 819.545 210.226 820.012 211.484 820.487L210.248 823.761C211.492 824.231 212.731 824.708 213.965 825.193L215.246 821.936C216.495 822.427 217.739 822.927 218.977 823.434L217.651 826.673C218.883 827.177 220.109 827.688 221.329 828.208L222.7 824.988C223.939 825.515 225.172 826.05 226.4 826.593L224.984 829.794C226.197 830.331 227.405 830.875 228.607 831.427L230.067 828.246C231.29 828.808 232.507 829.377 233.718 829.954L232.213 833.114C233.414 833.686 234.609 834.265 235.799 834.853L237.349 831.715C238.553 832.309 239.751 832.912 240.944 833.522L239.35 836.638C240.531 837.243 241.707 837.855 242.877 838.475L244.516 835.382C245.706 836.013 246.891 836.651 248.069 837.298L246.386 840.366C247.549 841.004 248.706 841.65 249.857 842.303L251.584 839.259C252.753 839.922 253.915 840.592 255.071 841.27L253.299 844.289C254.447 844.962 255.588 845.643 256.722 846.331L258.537 843.339C259.687 844.036 260.829 844.74 261.965 845.452L260.106 848.418C261.229 849.122 262.346 849.833 263.455 850.552L265.358 847.614C266.489 848.347 267.613 849.087 268.73 849.834L266.784 852.743C267.887 853.481 268.983 854.226 270.071 854.978L272.061 852.099C273.165 852.862 274.263 853.632 275.353 854.41L273.321 857.259C274.403 858.032 275.479 858.811 276.547 859.598L278.622 856.78C279.705 857.577 280.78 858.381 281.847 859.193L279.729 861.979C280.783 862.781 281.83 863.589 282.869 864.405L285.03 861.652C286.09 862.484 287.143 863.323 288.187 864.169L285.984 866.889C287.014 867.723 288.037 868.565 289.052 869.414L291.297 866.729C292.327 867.59 293.349 868.458 294.362 869.333L292.075 871.983C293.081 872.851 294.079 873.726 295.069 874.608L297.398 871.996C298.401 872.89 299.396 873.791 300.383 874.699L298.013 877.275C298.988 878.171 299.953 879.075 300.911 879.984L303.322 877.447C304.298 878.375 305.266 879.31 306.226 880.251L303.774 882.749C304.72 883.678 305.657 884.612 306.585 885.554L309.077 883.096C310.02 884.052 310.954 885.015 311.879 885.984L309.347 888.401C310.264 889.361 311.171 890.328 312.07 891.301L314.641 888.927C315.553 889.914 316.455 890.908 317.349 891.909L314.738 894.24C315.619 895.227 316.492 896.22 317.355 897.22L320.004 894.933C320.884 895.953 321.754 896.978 322.615 898.01L319.927 900.252C320.775 901.268 321.613 902.291 322.442 903.32L325.168 901.125C326.01 902.171 326.843 903.223 327.666 904.282L324.903 906.43C325.717 907.477 326.521 908.529 327.315 909.588L330.115 907.488C330.921 908.563 331.717 909.643 332.503 910.73L329.667 912.781C330.442 913.853 331.207 914.931 331.962 916.015L334.834 914.015C335.603 915.119 336.362 916.228 337.11 917.344L334.203 919.293C334.939 920.392 335.666 921.496 336.381 922.605L339.323 920.708C340.051 921.838 340.769 922.973 341.476 924.114L338.501 925.957C339.198 927.082 339.884 928.213 340.56 929.349L343.568 927.56C344.255 928.714 344.93 929.874 345.595 931.039L342.555 932.773C343.21 933.922 343.854 935.076 344.487 936.235L347.559 934.558C348.203 935.737 348.836 936.922 349.458 938.113L346.356 939.733C346.967 940.904 347.568 942.08 348.157 943.262L351.289 941.7C351.889 942.902 352.477 944.11 353.053 945.323L349.892 946.826C350.46 948.019 351.016 949.218 351.56 950.421L354.749 948.979C355.302 950.202 355.844 951.431 356.374 952.664L353.158 954.046C353.68 955.259 354.189 956.478 354.687 957.701L357.929 956.382C358.435 957.626 358.93 958.874 359.412 960.128L356.145 961.385C356.62 962.617 357.082 963.854 357.532 965.096L360.822 963.903C361.28 965.165 361.725 966.431 362.158 967.702L358.845 968.831C359.271 970.081 359.685 971.335 360.086 972.593L363.42 971.529C363.829 972.809 364.224 974.093 364.608 975.381L361.253 976.379C361.629 977.643 361.992 978.911 362.343 980.183L365.717 979.251C366.075 980.546 366.419 981.844 366.751 983.147L363.359 984.011C363.685 985.29 363.999 986.573 364.3 987.86L367.708 987.063C368.013 988.368 368.305 989.678 368.585 990.991L365.162 991.719C365.436 993.01 365.698 994.304 365.948 995.602L369.385 994.942C369.638 996.26 369.878 997.582 370.105 998.908L366.656 999.499C366.878 1000.8 367.088 1002.1 367.285 1003.4L370.745 1002.88C370.946 1004.21 371.133 1005.54 371.307 1006.87L367.836 1007.33C368.007 1008.63 368.165 1009.94 368.309 1011.26L371.788 1010.88C371.935 1012.21 372.068 1013.54 372.188 1014.88L368.703 1015.19C368.821 1016.51 368.926 1017.82 369.018 1019.14L372.51 1018.9C372.603 1020.24 372.683 1021.58 372.75 1022.92L369.254 1023.1C369.319 1024.41 369.372 1025.73 369.411 1027.04L372.91 1026.94Z" stroke="#E1B9B1" stroke-width="7" stroke-dasharray="4 4"/>
<path d="M2038.91 135.94C2038.95 137.283 2038.98 138.628 2038.99 139.976L2035.49 140.011C2035.5 140.673 2035.5 141.336 2035.5 142C2035.5 142.664 2035.5 143.327 2035.49 143.99L2038.99 144.024C2038.98 145.372 2038.95 146.718 2038.91 148.06L2035.41 147.956C2035.37 149.275 2035.32 150.591 2035.25 151.905L2038.75 152.079C2038.68 153.422 2038.6 154.763 2038.51 156.101L2035.02 155.857C2034.93 157.177 2034.82 158.495 2034.7 159.809L2038.19 160.122C2038.07 161.46 2037.93 162.794 2037.79 164.125L2034.31 163.742C2034.16 165.056 2034.01 166.367 2033.84 167.674L2037.31 168.127C2037.13 169.461 2036.95 170.792 2036.75 172.12L2033.28 171.598C2033.09 172.902 2032.88 174.204 2032.66 175.501L2036.11 176.092C2035.88 177.418 2035.64 178.74 2035.38 180.059L2031.95 179.398C2031.7 180.696 2031.44 181.99 2031.16 183.281L2034.58 184.01C2034.31 185.323 2034.01 186.632 2033.71 187.937L2030.3 187.141C2030 188.427 2029.69 189.71 2029.36 190.989L2032.75 191.854C2032.42 193.156 2032.07 194.455 2031.72 195.749L2028.34 194.818C2027.99 196.089 2027.63 197.357 2027.25 198.621L2030.61 199.619C2030.22 200.907 2029.83 202.191 2029.42 203.471L2026.09 202.408C2025.68 203.666 2025.27 204.92 2024.85 206.169L2028.16 207.298C2027.73 208.569 2027.28 209.835 2026.82 211.097L2023.53 209.904C2023.08 211.146 2022.62 212.383 2022.15 213.616L2025.41 214.872C2024.93 216.126 2024.44 217.375 2023.93 218.619L2020.69 217.299C2020.19 218.522 2019.68 219.741 2019.16 220.954L2022.37 222.336C2021.84 223.569 2021.3 224.798 2020.75 226.022L2017.56 224.579C2017.02 225.783 2016.46 226.981 2015.89 228.175L2019.05 229.677C2018.48 230.89 2017.89 232.098 2017.29 233.3L2014.16 231.738C2013.57 232.92 2012.97 234.096 2012.36 235.267L2015.46 236.887C2014.84 238.078 2014.2 239.263 2013.56 240.442L2010.49 238.765C2009.85 239.924 2009.21 241.078 2008.55 242.227L2011.59 243.961C2010.93 245.126 2010.25 246.286 2009.57 247.441L2006.56 245.651C2005.88 246.787 2005.2 247.918 2004.5 249.043L2007.48 250.887C2006.77 252.027 2006.05 253.162 2005.32 254.292L2002.38 252.395C2001.67 253.505 2000.94 254.609 2000.2 255.707L2003.11 257.656C2002.36 258.772 2001.6 259.882 2000.83 260.985L1997.96 258.985C1997.21 260.069 1996.44 261.147 1995.67 262.219L1998.5 264.27C1997.72 265.357 1996.92 266.438 1996.11 267.512L1993.31 265.412C1992.52 266.471 1991.72 267.523 1990.9 268.57L1993.67 270.718C1992.84 271.777 1992.01 272.829 1991.17 273.875L1988.44 271.68C1987.61 272.709 1986.77 273.732 1985.93 274.748L1988.61 276.99C1987.75 278.022 1986.88 279.048 1986 280.067L1983.35 277.78C1982.49 278.78 1981.62 279.773 1980.74 280.761L1983.35 283.092C1982.46 284.092 1981.55 285.086 1980.64 286.073L1978.07 283.699C1977.17 284.672 1976.26 285.639 1975.35 286.6L1977.88 289.016C1976.95 289.985 1976.02 290.948 1975.08 291.904L1972.58 289.446C1971.66 290.388 1970.72 291.323 1969.77 292.251L1972.23 294.749C1971.27 295.69 1970.3 296.625 1969.32 297.553L1966.91 295.016C1965.95 295.926 1964.99 296.829 1964.01 297.725L1966.38 300.301C1965.4 301.209 1964.4 302.11 1963.4 303.004L1961.07 300.392C1960.08 301.274 1959.08 302.149 1958.08 303.017L1960.36 305.667C1959.35 306.542 1958.33 307.41 1957.3 308.271L1955.05 305.586C1954.04 306.435 1953.01 307.277 1951.98 308.112L1954.19 310.831C1953.14 311.677 1952.09 312.516 1951.03 313.348L1948.87 310.595C1947.83 311.411 1946.78 312.219 1945.73 313.021L1947.85 315.807C1946.78 316.619 1945.7 317.423 1944.62 318.22L1942.55 315.402C1941.48 316.189 1940.4 316.968 1939.32 317.741L1941.35 320.59C1940.26 321.368 1939.17 322.138 1938.06 322.901L1936.07 320.022C1934.98 320.774 1933.89 321.519 1932.78 322.257L1934.73 325.166C1933.61 325.913 1932.49 326.653 1931.36 327.386L1929.46 324.448C1928.35 325.167 1927.23 325.878 1926.11 326.582L1927.96 329.548C1926.83 330.26 1925.69 330.964 1924.54 331.661L1922.72 328.669C1921.59 329.357 1920.45 330.038 1919.3 330.711L1921.07 333.73C1919.91 334.408 1918.75 335.078 1917.58 335.741L1915.86 332.697C1914.71 333.35 1913.55 333.996 1912.39 334.634L1914.07 337.702C1912.89 338.349 1911.71 338.987 1910.52 339.618L1908.88 336.525C1907.71 337.145 1906.53 337.757 1905.35 338.362L1906.94 341.478C1905.75 342.088 1904.55 342.691 1903.35 343.285L1901.8 340.147C1900.61 340.735 1899.41 341.314 1898.21 341.886L1899.72 345.046C1898.51 345.623 1897.29 346.193 1896.07 346.754L1894.61 343.573C1893.4 344.125 1892.2 344.669 1890.98 345.206L1892.4 348.407C1891.17 348.95 1889.94 349.485 1888.7 350.012L1887.33 346.792C1886.11 347.312 1884.88 347.823 1883.65 348.327L1884.98 351.567C1883.74 352.074 1882.49 352.573 1881.25 353.064L1879.96 349.807C1878.73 350.292 1877.49 350.769 1876.25 351.239L1877.48 354.513C1876.23 354.988 1874.96 355.455 1873.7 355.914L1872.5 352.622C1871.26 353.072 1870.01 353.514 1868.76 353.948L1869.91 357.255C1868.64 357.694 1867.37 358.125 1866.09 358.548L1864.99 355.225C1863.73 355.643 1862.46 356.053 1861.19 356.455L1862.25 359.792C1860.97 360.196 1859.69 360.591 1858.41 360.978L1857.4 357.627C1856.13 358.009 1854.86 358.384 1853.58 358.75L1854.54 362.114C1853.25 362.485 1851.96 362.847 1850.65 363.202L1849.74 359.824C1848.46 360.172 1847.18 360.512 1845.89 360.844L1846.76 364.233C1845.47 364.568 1844.17 364.894 1842.86 365.212L1842.03 361.812C1840.74 362.126 1839.45 362.433 1838.15 362.731L1838.93 366.142C1837.63 366.443 1836.31 366.735 1835 367.019L1834.26 363.598C1832.97 363.877 1831.67 364.148 1830.37 364.411L1831.06 367.841C1829.75 368.107 1828.43 368.365 1827.11 368.614L1826.46 365.175C1825.15 365.421 1823.84 365.659 1822.53 365.889L1823.13 369.336C1821.81 369.567 1820.49 369.789 1819.17 370.002L1818.61 366.547C1817.3 366.758 1815.99 366.961 1814.68 367.156L1815.19 370.618C1813.86 370.816 1812.53 371.004 1811.19 371.184L1810.72 367.716C1809.41 367.893 1808.09 368.061 1806.78 368.222L1807.2 371.696C1805.87 371.858 1804.54 372.011 1803.2 372.156L1802.82 368.677C1801.5 368.82 1800.18 368.955 1798.85 369.082L1799.19 372.566C1797.85 372.694 1796.51 372.813 1795.17 372.924L1794.88 369.436C1793.56 369.545 1792.24 369.646 1790.92 369.738L1791.16 373.23C1789.82 373.323 1788.48 373.408 1787.14 373.485L1786.94 369.99C1785.61 370.066 1784.28 370.134 1782.94 370.193L1783.1 373.689C1781.76 373.748 1780.43 373.799 1779.09 373.841L1778.98 370.343C1777.65 370.385 1776.33 370.418 1775 370.443L1775.06 373.943C1773.72 373.968 1772.37 373.985 1771.02 373.994L1771 370.494C1770.34 370.498 1769.67 370.5 1769 370.5C1768.33 370.5 1767.66 370.498 1767 370.494L1766.97 373.994C1765.63 373.985 1764.28 373.968 1762.94 373.943L1763 370.443C1761.67 370.418 1760.35 370.385 1759.02 370.343L1758.91 373.841C1757.57 373.799 1756.23 373.748 1754.9 373.689L1755.05 370.193C1753.72 370.134 1752.39 370.066 1751.06 369.99L1750.86 373.485C1749.52 373.408 1748.18 373.323 1746.84 373.23L1747.08 369.738C1745.76 369.646 1744.44 369.545 1743.12 369.436L1742.83 372.924C1741.49 372.813 1740.15 372.694 1738.81 372.566L1739.15 369.082C1737.82 368.955 1736.5 368.82 1735.18 368.677L1734.8 372.156C1733.46 372.011 1732.13 371.858 1730.8 371.696L1731.22 368.222C1729.91 368.061 1728.59 367.893 1727.28 367.716L1726.81 371.184C1725.47 371.004 1724.14 370.815 1722.81 370.618L1723.32 367.156C1722.01 366.961 1720.7 366.758 1719.39 366.547L1718.83 370.002C1717.51 369.789 1716.19 369.567 1714.87 369.336L1715.47 365.889C1714.16 365.659 1712.85 365.421 1711.54 365.175L1710.89 368.614C1709.57 368.365 1708.25 368.107 1706.94 367.841L1707.63 364.411C1706.33 364.148 1705.03 363.877 1703.74 363.598L1703 367.019C1701.69 366.735 1700.37 366.443 1699.07 366.142L1699.85 362.731C1698.55 362.433 1697.26 362.126 1695.97 361.812L1695.14 365.212C1693.83 364.894 1692.53 364.568 1691.24 364.233L1692.11 360.844C1690.82 360.512 1689.54 360.172 1688.26 359.824L1687.35 363.201C1686.04 362.847 1684.75 362.485 1683.46 362.114L1684.42 358.75C1683.14 358.384 1681.87 358.009 1680.6 357.627L1679.59 360.978C1678.31 360.591 1677.03 360.196 1675.75 359.792L1676.81 356.455C1675.54 356.053 1674.27 355.643 1673.01 355.225L1671.91 358.548C1670.63 358.125 1669.36 357.694 1668.09 357.255L1669.24 353.948C1667.99 353.514 1666.74 353.072 1665.5 352.622L1664.3 355.914C1663.04 355.455 1661.77 354.988 1660.52 354.513L1661.75 351.239C1660.51 350.769 1659.27 350.292 1658.04 349.807L1656.75 353.064C1655.51 352.573 1654.26 352.073 1653.02 351.566L1654.35 348.327C1653.12 347.823 1651.89 347.311 1650.67 346.792L1649.3 350.012C1648.06 349.485 1646.83 348.95 1645.6 348.407L1647.02 345.206C1645.8 344.669 1644.6 344.125 1643.39 343.573L1641.93 346.754C1640.71 346.192 1639.49 345.623 1638.28 345.046L1639.79 341.886C1638.59 341.314 1637.39 340.735 1636.2 340.147L1634.65 343.285C1633.45 342.691 1632.25 342.088 1631.06 341.478L1632.65 338.362C1631.47 337.757 1630.29 337.145 1629.12 336.525L1627.48 339.618C1626.29 338.987 1625.11 338.349 1623.93 337.702L1625.61 334.634C1624.45 333.996 1623.29 333.35 1622.14 332.697L1620.42 335.741C1619.25 335.078 1618.09 334.408 1616.93 333.73L1618.7 330.711C1617.55 330.038 1616.41 329.357 1615.28 328.669L1613.46 331.661C1612.31 330.964 1611.17 330.26 1610.04 329.548L1611.89 326.582C1610.77 325.878 1609.65 325.167 1608.54 324.448L1606.64 327.386C1605.51 326.653 1604.39 325.913 1603.27 325.166L1605.22 322.257C1604.11 321.519 1603.02 320.774 1601.93 320.022L1599.94 322.901C1598.83 322.138 1597.74 321.368 1596.65 320.59L1598.68 317.741C1597.6 316.968 1596.52 316.189 1595.45 315.402L1593.38 318.22C1592.3 317.423 1591.22 316.619 1590.15 315.807L1592.27 313.021C1591.22 312.219 1590.17 311.411 1589.13 310.595L1586.97 313.348C1585.91 312.516 1584.86 311.677 1583.81 310.831L1586.02 308.111C1584.99 307.277 1583.96 306.435 1582.95 305.586L1580.7 308.271C1579.67 307.41 1578.65 306.542 1577.64 305.667L1579.92 303.017C1578.92 302.149 1577.92 301.274 1576.93 300.392L1574.6 303.004C1573.6 302.11 1572.6 301.209 1571.62 300.301L1573.99 297.725C1573.01 296.829 1572.05 295.925 1571.09 295.016L1568.68 297.553C1567.7 296.625 1566.73 295.69 1565.77 294.749L1568.23 292.251C1567.28 291.322 1566.34 290.388 1565.41 289.446L1562.92 291.904C1561.98 290.948 1561.05 289.985 1560.12 289.016L1562.65 286.599C1561.74 285.639 1560.83 284.672 1559.93 283.699L1557.36 286.073C1556.45 285.086 1555.54 284.092 1554.65 283.091L1557.26 280.76C1556.38 279.773 1555.51 278.78 1554.65 277.78L1552 280.067C1551.12 279.047 1550.25 278.022 1549.39 276.99L1552.07 274.748C1551.23 273.732 1550.39 272.709 1549.56 271.68L1546.83 273.875C1545.99 272.829 1545.16 271.777 1544.33 270.718L1547.1 268.57C1546.28 267.523 1545.48 266.471 1544.69 265.412L1541.89 267.512C1541.08 266.437 1540.28 265.357 1539.5 264.27L1542.33 262.219C1541.56 261.147 1540.79 260.069 1540.04 258.985L1537.17 260.985C1536.4 259.882 1535.64 258.772 1534.89 257.656L1537.8 255.707C1537.06 254.608 1536.33 253.504 1535.62 252.395L1532.68 254.292C1531.95 253.162 1531.23 252.027 1530.52 250.886L1533.5 249.043C1532.8 247.918 1532.12 246.787 1531.44 245.651L1528.43 247.44C1527.75 246.286 1527.07 245.126 1526.4 243.961L1529.45 242.227C1528.79 241.078 1528.15 239.924 1527.51 238.765L1524.44 240.442C1523.8 239.263 1523.16 238.078 1522.54 236.887L1525.64 235.267C1525.03 234.096 1524.43 232.92 1523.84 231.738L1520.71 233.3C1520.11 232.098 1519.52 230.89 1518.95 229.677L1522.11 228.174C1521.54 226.981 1520.98 225.782 1520.44 224.579L1517.25 226.021C1516.7 224.798 1516.16 223.569 1515.63 222.336L1518.84 220.954C1518.32 219.741 1517.81 218.522 1517.31 217.299L1514.07 218.618C1513.56 217.374 1513.07 216.126 1512.59 214.872L1515.85 213.615C1515.38 212.383 1514.92 211.146 1514.47 209.904L1511.18 211.097C1510.72 209.835 1510.27 208.569 1509.84 207.298L1513.15 206.169C1512.73 204.919 1512.32 203.665 1511.91 202.407L1508.58 203.471C1508.17 202.191 1507.78 200.907 1507.39 199.619L1510.75 198.621C1510.37 197.357 1510.01 196.089 1509.66 194.817L1506.28 195.749C1505.93 194.454 1505.58 193.156 1505.25 191.853L1508.64 190.989C1508.31 189.71 1508 188.427 1507.7 187.14L1504.29 187.937C1503.99 186.632 1503.69 185.322 1503.42 184.009L1506.84 183.281C1506.56 181.99 1506.3 180.696 1506.05 179.398L1502.62 180.058C1502.36 178.74 1502.12 177.418 1501.89 176.092L1505.34 175.501C1505.12 174.203 1504.91 172.902 1504.72 171.598L1501.25 172.12C1501.05 170.792 1500.87 169.461 1500.69 168.126L1504.16 167.674C1503.99 166.366 1503.84 165.056 1503.69 163.742L1500.21 164.125C1500.07 162.794 1499.93 161.46 1499.81 160.122L1503.3 159.809C1503.18 158.494 1503.07 157.177 1502.98 155.857L1499.49 156.1C1499.4 154.763 1499.32 153.422 1499.25 152.078L1502.75 151.904C1502.68 150.591 1502.63 149.275 1502.59 147.955L1499.09 148.06C1499.05 146.717 1499.02 145.372 1499.01 144.024L1502.51 143.989C1502.5 143.327 1502.5 142.664 1502.5 142C1502.5 141.336 1502.5 140.673 1502.51 140.01L1499.01 139.976C1499.02 138.628 1499.05 137.282 1499.09 135.94L1502.59 136.044C1502.63 134.725 1502.68 133.409 1502.75 132.095L1499.25 131.921C1499.32 130.578 1499.4 129.237 1499.49 127.899L1502.98 128.143C1503.07 126.823 1503.18 125.505 1503.3 124.191L1499.81 123.878C1499.93 122.54 1500.07 121.206 1500.21 119.875L1503.69 120.258C1503.84 118.944 1503.99 117.633 1504.16 116.326L1500.69 115.873C1500.87 114.539 1501.05 113.208 1501.25 111.88L1504.72 112.402C1504.91 111.098 1505.12 109.796 1505.34 108.499L1501.89 107.908C1502.12 106.582 1502.36 105.26 1502.62 103.941L1506.05 104.602C1506.3 103.304 1506.56 102.01 1506.84 100.719L1503.42 99.9904C1503.69 98.6773 1503.99 97.368 1504.29 96.0627L1507.7 96.8593C1508 95.5725 1508.31 94.2895 1508.64 93.0106L1505.25 92.1463C1505.58 90.8438 1505.93 89.5453 1506.28 88.2511L1509.66 89.1825C1510.01 87.9106 1510.37 86.6427 1510.75 85.379L1507.39 84.3812C1507.78 83.0927 1508.17 81.8086 1508.58 80.5289L1511.91 81.5925C1512.32 80.3343 1512.73 79.0804 1513.15 77.831L1509.84 76.7022C1510.27 75.4311 1510.72 74.1646 1511.18 72.9026L1514.47 74.0957C1514.92 72.8541 1515.38 71.617 1515.85 70.3845L1512.59 69.1277C1513.07 67.8741 1513.56 66.6253 1514.07 65.3813L1517.31 66.7008C1517.81 65.4777 1518.32 64.2592 1518.84 63.0456L1515.63 61.6641C1516.16 60.4306 1516.7 59.2019 1517.25 57.9783L1520.44 59.4209C1520.98 58.2175 1521.54 57.0189 1522.11 55.8254L1518.95 54.3227C1519.52 53.1098 1520.11 51.9021 1520.71 50.6997L1523.84 52.2616C1524.43 51.0803 1525.03 49.904 1525.64 48.7329L1522.54 47.1127C1523.16 45.9223 1523.8 44.7372 1524.44 43.5576L1527.51 45.2352C1528.15 44.0758 1528.79 42.9217 1529.45 41.7729L1526.41 40.0389C1527.07 38.8736 1527.75 37.7137 1528.43 36.5594L1531.44 38.3487C1532.12 37.2127 1532.8 36.0821 1533.5 34.9571L1530.52 33.1135C1531.23 31.9726 1531.95 30.8375 1532.68 29.7082L1535.62 31.6051C1536.33 30.4955 1537.06 29.3914 1537.8 28.2931L1534.89 26.3438C1535.64 25.2282 1536.4 24.1184 1537.17 23.0146L1540.04 25.0152C1540.79 23.9313 1541.56 22.8532 1542.33 21.781L1539.5 19.7301C1540.28 18.6433 1541.08 17.5625 1541.89 16.4877L1544.69 18.5878C1545.48 17.5293 1546.28 16.4767 1547.1 15.4302L1544.33 13.2818C1545.16 12.2232 1545.99 11.1708 1546.83 10.1246L1549.56 12.3201C1550.39 11.2912 1551.23 10.2683 1552.07 9.25166L1549.39 7.00996C1550.25 5.97803 1551.12 4.95241 1552 3.9332L1554.65 6.22015C1555.51 5.22036 1556.38 4.22677 1557.26 3.23949L1554.65 0.908424C1555.54 -0.09198 1556.45 -1.08595 1557.36 -2.07339L1559.93 0.300835C1560.83 -0.672371 1561.74 -1.6392 1562.65 -2.59956L1560.12 -5.01603C1561.05 -5.98528 1561.98 -6.94798 1562.92 -7.90403L1565.42 -5.4464C1566.34 -6.38773 1567.28 -7.32256 1568.23 -8.25083L1565.77 -10.7487C1566.73 -11.6902 1567.7 -12.625 1568.68 -13.553L1571.09 -11.0158C1572.05 -11.9255 1573.01 -12.8287 1573.99 -13.7252L1571.62 -16.3007C1572.6 -17.2088 1573.6 -18.1101 1574.6 -19.0044L1576.93 -16.3916C1577.92 -17.2737 1578.92 -18.149 1579.92 -19.0174L1577.64 -21.6668C1578.65 -22.5419 1579.67 -23.4101 1580.7 -24.2712L1582.95 -21.5864C1583.96 -22.435 1584.99 -23.2767 1586.02 -24.1115L1583.81 -26.8311C1584.86 -27.6773 1585.91 -28.5164 1586.97 -29.3484L1589.13 -26.595C1590.17 -27.4107 1591.22 -28.2194 1592.27 -29.0211L1590.15 -31.8073C1591.22 -32.6188 1592.3 -33.4232 1593.38 -34.2204L1595.45 -31.4022C1596.52 -32.1889 1597.6 -32.9684 1598.68 -33.7408L1596.65 -36.5901C1597.74 -37.3678 1598.83 -38.1383 1599.94 -38.9015L1601.93 -36.0219C1603.02 -36.774 1604.11 -37.519 1605.22 -38.2567L1603.27 -41.1657C1604.39 -41.9131 1605.51 -42.6531 1606.64 -43.3856L1608.54 -40.4479C1609.65 -41.1667 1610.77 -41.8782 1611.89 -42.5824L1610.04 -45.5478C1611.17 -46.2598 1612.31 -46.9643 1613.46 -47.6613L1615.28 -44.6688C1616.41 -45.3569 1617.55 -46.0377 1618.7 -46.7109L1616.93 -49.7297C1618.09 -50.4078 1619.25 -51.0784 1620.42 -51.7414L1622.14 -48.6972C1623.29 -49.3502 1624.45 -49.9957 1625.61 -50.6337L1623.93 -53.7025C1625.11 -54.3486 1626.29 -54.987 1627.48 -55.6178L1629.12 -52.5251C1630.29 -53.145 1631.47 -53.7573 1632.65 -54.3621L1631.06 -57.4779C1632.25 -58.0881 1633.45 -58.6906 1634.65 -59.2853L1636.2 -56.1472C1637.39 -56.7346 1638.59 -57.3144 1639.79 -57.8865L1638.28 -61.0463C1639.49 -61.6233 1640.71 -62.1925 1641.93 -62.7539L1643.39 -59.5731C1644.6 -60.125 1645.8 -60.6693 1647.02 -61.2058L1645.6 -64.4066C1646.83 -64.9497 1648.06 -65.485 1649.3 -66.0123L1650.67 -62.7919C1651.89 -63.3116 1653.12 -63.8234 1654.35 -64.3274L1653.02 -67.5665C1654.26 -68.0735 1655.51 -68.5726 1656.75 -69.0638L1658.04 -65.8066C1659.27 -66.2919 1660.51 -66.7694 1661.75 -67.2389L1660.52 -70.5134C1661.77 -70.9882 1663.04 -71.4549 1664.3 -71.9136L1665.5 -68.6224C1666.74 -69.072 1667.99 -69.5138 1669.24 -69.9476L1668.09 -73.2548C1669.36 -73.6938 1670.63 -74.1249 1671.91 -74.5478L1673.01 -71.2254C1674.27 -71.6433 1675.54 -72.0533 1676.81 -72.4551L1675.75 -75.7923C1677.03 -76.1956 1678.31 -76.591 1679.59 -76.9782L1680.6 -73.6271C1681.87 -74.0094 1683.14 -74.3837 1684.42 -74.75L1683.46 -78.1143C1684.75 -78.4849 1686.04 -78.8473 1687.35 -79.2015L1688.26 -75.8245C1689.54 -76.1724 1690.82 -76.5123 1692.11 -76.844L1691.24 -80.2331C1692.53 -80.5676 1693.83 -80.894 1695.14 -81.2122L1695.97 -77.8119C1697.26 -78.1264 1698.55 -78.4328 1699.85 -78.731L1699.07 -82.1421C1700.37 -82.4427 1701.69 -82.735 1703 -83.0191L1703.74 -79.5979C1705.03 -79.877 1706.33 -80.148 1707.63 -80.4108L1706.94 -83.8414C1708.25 -84.1073 1709.57 -84.3649 1710.89 -84.6142L1711.54 -81.1747C1712.85 -81.421 1714.16 -81.659 1715.47 -81.8888L1714.87 -85.3365C1716.19 -85.5667 1717.51 -85.7887 1718.83 -86.0024L1719.39 -82.5471C1720.7 -82.7584 1722.01 -82.9615 1723.32 -83.1563L1722.81 -86.6185C1724.14 -86.8155 1725.47 -87.0042 1726.81 -87.1845L1727.28 -83.7158C1728.59 -83.8927 1729.91 -84.0614 1731.22 -84.2217L1730.8 -87.6961C1732.13 -87.8579 1733.46 -88.0113 1734.8 -88.1564L1735.18 -84.6768C1736.5 -84.8203 1737.82 -84.9554 1739.15 -85.0822L1738.81 -88.5663C1740.15 -88.694 1741.49 -88.8134 1742.83 -88.9243L1743.12 -85.4362C1744.44 -85.5451 1745.76 -85.6458 1747.08 -85.7382L1746.84 -89.2297C1748.18 -89.3231 1749.52 -89.4081 1750.86 -89.4847L1751.06 -85.9904C1752.39 -86.0662 1753.72 -86.1335 1755.06 -86.1925L1754.9 -89.6891C1756.24 -89.7481 1757.57 -89.7988 1758.91 -89.8411L1759.02 -86.3428C1760.35 -86.3846 1761.67 -86.4181 1763 -86.4433L1762.94 -89.9427C1764.28 -89.9681 1765.63 -89.9851 1766.98 -89.9936L1767 -86.4937C1767.66 -86.4979 1768.33 -86.5 1769 -86.5C1769.67 -86.5 1770.34 -86.4979 1771 -86.4937L1771.03 -89.9936C1772.37 -89.9851 1773.72 -89.9681 1775.06 -89.9426L1775 -86.4433C1776.33 -86.4181 1777.65 -86.3846 1778.98 -86.3428L1779.09 -89.8411C1780.43 -89.7988 1781.77 -89.7481 1783.1 -89.6891L1782.95 -86.1925C1784.28 -86.1335 1785.61 -86.0661 1786.94 -85.9904L1787.14 -89.4847C1788.48 -89.4081 1789.82 -89.3231 1791.16 -89.2297L1790.92 -85.7382C1792.24 -85.6458 1793.56 -85.5451 1794.88 -85.4362L1795.17 -88.9243C1796.51 -88.8134 1797.85 -88.694 1799.19 -88.5663L1798.85 -85.0822C1800.18 -84.9554 1801.5 -84.8202 1802.82 -84.6768L1803.2 -88.1563C1804.54 -88.0113 1805.87 -87.8578 1807.2 -87.6961L1806.78 -84.2217C1808.09 -84.0613 1809.41 -83.8927 1810.72 -83.7158L1811.19 -87.1844C1812.53 -87.0042 1813.86 -86.8155 1815.19 -86.6185L1814.68 -83.1562C1815.99 -82.9614 1817.3 -82.7584 1818.61 -82.5471L1819.17 -86.0023C1820.49 -85.7886 1821.81 -85.5666 1823.13 -85.3364L1822.53 -81.8887C1823.84 -81.659 1825.15 -81.4209 1826.46 -81.1747L1827.11 -84.6142C1828.43 -84.3649 1829.75 -84.1073 1831.06 -83.8414L1830.37 -80.4108C1831.67 -80.1479 1832.97 -79.8769 1834.26 -79.5978L1835 -83.019C1836.31 -82.735 1837.63 -82.4426 1838.93 -82.142L1838.15 -78.7309C1839.45 -78.4327 1840.74 -78.1263 1842.03 -77.8118L1842.86 -81.2122C1844.17 -80.894 1845.47 -80.5676 1846.76 -80.233L1845.89 -76.844C1847.18 -76.5122 1848.46 -76.1723 1849.74 -75.8244L1850.65 -79.2014C1851.96 -78.8473 1853.25 -78.4849 1854.54 -78.1143L1853.58 -74.7499C1854.86 -74.3837 1856.13 -74.0094 1857.4 -73.6271L1858.41 -76.9781C1859.69 -76.5909 1860.97 -76.1956 1862.25 -75.7922L1861.19 -72.4551C1862.46 -72.0532 1863.73 -71.6433 1864.99 -71.2253L1866.09 -74.5478C1867.37 -74.1248 1868.64 -73.6938 1869.91 -73.2547L1868.76 -69.9476C1870.01 -69.5137 1871.26 -69.0719 1872.5 -68.6223L1873.7 -71.9135C1874.96 -71.4549 1876.23 -70.9881 1877.48 -70.5133L1876.25 -67.2388C1877.49 -66.7693 1878.73 -66.2919 1879.96 -65.8066L1881.25 -69.0637C1882.49 -68.5726 1883.74 -68.0734 1884.98 -67.5665L1883.65 -64.3273C1884.88 -63.8233 1886.11 -63.3115 1887.33 -62.7919L1888.7 -66.0123C1889.94 -65.4849 1891.17 -64.9497 1892.4 -64.4066L1890.98 -61.2057C1892.2 -60.6692 1893.4 -60.125 1894.61 -59.5731L1896.07 -62.7538C1897.29 -62.1925 1898.51 -61.6232 1899.72 -61.0463L1898.21 -57.8864C1899.41 -57.3144 1900.61 -56.7346 1901.8 -56.1471L1903.35 -59.2853C1904.55 -58.6905 1905.75 -58.088 1906.94 -57.4778L1905.35 -54.362C1906.53 -53.7573 1907.71 -53.1449 1908.88 -52.525L1910.52 -55.6177C1911.71 -54.987 1912.89 -54.3485 1914.07 -53.7024L1912.39 -50.6337C1913.55 -49.9957 1914.71 -49.3502 1915.86 -48.6972L1917.58 -51.7413C1918.75 -51.0783 1919.91 -50.4077 1921.07 -49.7296L1919.3 -46.7109C1920.45 -46.0376 1921.59 -45.3569 1922.72 -44.6688L1924.54 -47.6612C1925.69 -46.9642 1926.83 -46.2597 1927.96 -45.5478L1926.11 -42.5823C1927.23 -41.8781 1928.35 -41.1666 1929.46 -40.4479L1931.36 -43.3856C1932.49 -42.653 1933.61 -41.913 1934.73 -41.1656L1932.78 -38.2566C1933.89 -37.5189 1934.98 -36.7739 1936.07 -36.0218L1938.06 -38.9014C1939.17 -38.1382 1940.26 -37.3677 1941.35 -36.59L1939.32 -33.7407C1940.4 -32.9683 1941.48 -32.1888 1942.55 -31.4022L1944.62 -34.2203C1945.7 -33.4231 1946.78 -32.6187 1947.85 -31.8072L1945.73 -29.021C1946.78 -28.2193 1947.83 -27.4106 1948.87 -26.595L1951.03 -29.3483C1952.09 -28.5163 1953.14 -27.6772 1954.19 -26.831L1951.98 -24.1115C1953.01 -23.2766 1954.04 -22.4349 1955.05 -21.5863L1957.3 -24.2712C1958.33 -23.41 1959.35 -22.5418 1960.36 -21.6667L1958.08 -19.0173C1959.08 -18.1489 1960.08 -17.2736 1961.07 -16.3915L1963.4 -19.0044C1964.4 -18.11 1965.4 -17.2087 1966.38 -16.3006L1964.01 -13.7251C1964.99 -12.8286 1965.95 -11.9255 1966.91 -11.0157L1969.32 -13.5529C1970.3 -12.6249 1971.27 -11.6901 1972.23 -10.7486L1969.77 -8.25074C1970.72 -7.32248 1971.66 -6.38764 1972.59 -5.44632L1975.08 -7.90395C1976.02 -6.94789 1976.95 -5.98519 1977.88 -5.01594L1975.35 -2.59946C1976.26 -1.63911 1977.17 -0.672279 1978.07 0.300926L1980.64 -2.0733C1981.55 -1.08585 1982.46 -0.0918884 1983.35 0.908516L1980.74 3.23958C1981.62 4.22687 1982.49 5.22045 1983.35 6.22025L1986 3.9333C1986.88 4.95251 1987.75 5.97813 1988.61 7.01006L1985.93 9.25175C1986.77 10.2684 1987.61 11.2913 1988.44 12.3202L1991.17 10.1247C1992.01 11.1709 1992.84 12.2233 1993.67 13.2819L1990.9 15.4303C1991.72 16.4768 1992.52 17.5294 1993.31 18.5879L1996.11 16.4878C1996.92 17.5626 1997.72 18.6434 1998.5 19.7302L1995.67 21.7811C1996.44 22.8533 1997.21 23.9314 1997.96 25.0153L2000.83 23.0147C2001.6 24.1185 2002.36 25.2283 2003.11 26.3439L2000.2 28.2932C2000.94 29.3916 2001.67 30.4956 2002.38 31.6053L2005.32 29.7083C2006.05 30.8376 2006.77 31.9728 2007.48 33.1136L2004.5 34.9573C2005.2 36.0823 2005.88 37.2129 2006.56 38.3488L2009.57 36.5596C2010.25 37.7139 2010.93 38.8737 2011.6 40.0391L2008.55 41.7731C2009.21 42.9218 2009.85 44.0759 2010.49 45.2353L2013.56 43.5577C2014.2 44.7374 2014.84 45.9224 2015.46 47.1128L2012.36 48.7331C2012.97 49.9042 2013.57 51.0805 2014.16 52.2618L2017.29 50.6999C2017.89 51.9023 2018.48 53.11 2019.05 54.3229L2015.89 55.8256C2016.46 57.0191 2017.02 58.2176 2017.56 59.421L2020.75 57.9785C2021.3 59.2021 2021.84 60.4308 2022.37 61.6643L2019.16 63.0458C2019.68 64.2594 2020.19 65.4779 2020.69 66.701L2023.93 65.3815C2024.44 66.6255 2024.93 67.8744 2025.41 69.128L2022.15 70.3847C2022.62 71.6172 2023.08 72.8543 2023.53 74.0959L2026.82 72.9029C2027.28 74.1648 2027.73 75.4314 2028.16 76.7025L2024.85 77.8312C2025.27 79.0807 2025.68 80.3346 2026.09 81.5927L2029.42 80.5291C2029.83 81.8089 2030.22 83.093 2030.61 84.3815L2027.25 85.3792C2027.63 86.6429 2027.99 87.9108 2028.34 89.1828L2031.72 88.2514C2032.07 89.5456 2032.42 90.844 2032.75 92.1465L2029.36 93.0108C2029.69 94.2898 2030 95.5728 2030.3 96.8596L2033.71 96.0629C2034.01 97.3683 2034.31 98.6776 2034.58 99.9907L2031.16 100.719C2031.44 102.01 2031.7 103.304 2031.95 104.602L2035.38 103.942C2035.64 105.26 2035.88 106.582 2036.11 107.908L2032.66 108.499C2032.88 109.797 2033.09 111.098 2033.28 112.402L2036.75 111.88C2036.95 113.208 2037.13 114.539 2037.31 115.874L2033.84 116.326C2034.01 117.634 2034.16 118.944 2034.31 120.258L2037.79 119.875C2037.93 121.206 2038.07 122.54 2038.19 123.878L2034.7 124.191C2034.82 125.506 2034.93 126.823 2035.02 128.143L2038.51 127.9C2038.6 129.237 2038.68 130.578 2038.75 131.922L2035.25 132.096C2035.32 133.409 2035.37 134.725 2035.41 136.045L2038.91 135.94Z" stroke="#1F3B50" stroke-width="7" stroke-dasharray="4 4"/>
</g>
<defs>
<clipPath id="clip0_2012_27">
<rect width="1920" height="1075" fill="white"/>
</clipPath>
</defs>
</svg>
