<svg width="1920" height="1075" viewBox="0 0 1920 1075" fill="none" xmlns="http://www.w3.org/2000/svg">
<g clip-path="url(#clip0_2011_26)">
<rect width="1920" height="1075" fill="#1F3B50"/>
<path d="M1226.91 590.222C1331.12 93.1231 1750.36 308.394 1946.95 478.167L2031.48 705.227L2110.25 1063.86L1825.51 1181.43C1582.56 1191.48 1122.7 1087.32 1226.91 590.222Z" fill="white" fill-opacity="0.34"/>
<path d="M372.91 1026.94C372.95 1028.28 372.977 1029.63 372.99 1030.98L369.49 1031.01C369.497 1031.67 369.5 1032.34 369.5 1033C369.5 1033.66 369.497 1034.33 369.49 1034.99L372.99 1035.02C372.977 1036.37 372.95 1037.72 372.91 1039.06L369.411 1038.96C369.372 1040.27 369.319 1041.59 369.254 1042.9L372.75 1043.08C372.683 1044.42 372.603 1045.76 372.509 1047.1L369.018 1046.86C368.926 1048.18 368.821 1049.49 368.702 1050.81L372.188 1051.12C372.068 1052.46 371.935 1053.79 371.788 1055.13L368.309 1054.74C368.164 1056.06 368.007 1057.37 367.836 1058.67L371.307 1059.13C371.133 1060.46 370.946 1061.79 370.745 1063.12L367.284 1062.6C367.088 1063.9 366.878 1065.2 366.656 1066.5L370.105 1067.09C369.878 1068.42 369.638 1069.74 369.385 1071.06L365.947 1070.4C365.698 1071.7 365.436 1072.99 365.161 1074.28L368.585 1075.01C368.305 1076.32 368.013 1077.63 367.708 1078.94L364.3 1078.14C363.999 1079.43 363.685 1080.71 363.359 1081.99L366.751 1082.85C366.419 1084.16 366.074 1085.45 365.717 1086.75L362.343 1085.82C361.992 1087.09 361.629 1088.36 361.253 1089.62L364.608 1090.62C364.224 1091.91 363.829 1093.19 363.42 1094.47L360.086 1093.41C359.685 1094.67 359.271 1095.92 358.845 1097.17L362.158 1098.3C361.725 1099.57 361.28 1100.84 360.822 1102.1L357.532 1100.9C357.082 1102.15 356.62 1103.38 356.145 1104.62L359.412 1105.87C358.93 1107.13 358.435 1108.37 357.929 1109.62L354.687 1108.3C354.189 1109.52 353.68 1110.74 353.158 1111.95L356.374 1113.34C355.844 1114.57 355.302 1115.8 354.749 1117.02L351.56 1115.58C351.016 1116.78 350.46 1117.98 349.892 1119.17L353.053 1120.68C352.477 1121.89 351.889 1123.1 351.289 1124.3L348.157 1122.74C347.568 1123.92 346.967 1125.1 346.356 1126.27L349.458 1127.89C348.836 1129.08 348.203 1130.26 347.559 1131.44L344.487 1129.76C343.854 1130.92 343.21 1132.08 342.555 1133.23L345.595 1134.96C344.93 1136.13 344.255 1137.29 343.568 1138.44L340.56 1136.65C339.884 1137.79 339.198 1138.92 338.501 1140.04L341.476 1141.89C340.769 1143.03 340.051 1144.16 339.323 1145.29L336.381 1143.39C335.666 1144.5 334.939 1145.61 334.203 1146.71L337.11 1148.66C336.362 1149.77 335.603 1150.88 334.834 1151.99L331.962 1149.98C331.207 1151.07 330.442 1152.15 329.667 1153.22L332.503 1155.27C331.717 1156.36 330.921 1157.44 330.115 1158.51L327.315 1156.41C326.521 1157.47 325.717 1158.52 324.903 1159.57L327.666 1161.72C326.843 1162.78 326.01 1163.83 325.168 1164.88L322.442 1162.68C321.613 1163.71 320.775 1164.73 319.927 1165.75L322.615 1167.99C321.754 1169.02 320.884 1170.05 320.004 1171.07L317.355 1168.78C316.492 1169.78 315.619 1170.77 314.738 1171.76L317.349 1174.09C316.455 1175.09 315.553 1176.09 314.641 1177.07L312.07 1174.7C311.171 1175.67 310.264 1176.64 309.347 1177.6L311.879 1180.02C310.954 1180.99 310.02 1181.95 309.077 1182.9L306.585 1180.45C305.657 1181.39 304.72 1182.32 303.774 1183.25L306.225 1185.75C305.266 1186.69 304.298 1187.62 303.322 1188.55L300.911 1186.02C299.953 1186.93 298.987 1187.83 298.013 1188.73L300.383 1191.3C299.396 1192.21 298.401 1193.11 297.398 1194L295.069 1191.39C294.079 1192.27 293.081 1193.15 292.075 1194.02L294.362 1196.67C293.349 1197.54 292.327 1198.41 291.297 1199.27L289.052 1196.59C288.037 1197.43 287.014 1198.28 285.984 1199.11L288.187 1201.83C287.143 1202.68 286.09 1203.52 285.03 1204.35L282.869 1201.6C281.83 1202.41 280.783 1203.22 279.729 1204.02L281.847 1206.81C280.78 1207.62 279.705 1208.42 278.622 1209.22L276.547 1206.4C275.479 1207.19 274.403 1207.97 273.32 1208.74L275.353 1211.59C274.263 1212.37 273.165 1213.14 272.061 1213.9L270.071 1211.02C268.983 1211.77 267.887 1212.52 266.784 1213.26L268.73 1216.17C267.613 1216.91 266.489 1217.65 265.358 1218.39L263.455 1215.45C262.345 1216.17 261.229 1216.88 260.106 1217.58L261.965 1220.55C260.829 1221.26 259.686 1221.96 258.537 1222.66L256.722 1219.67C255.588 1220.36 254.447 1221.04 253.299 1221.71L255.071 1224.73C253.915 1225.41 252.753 1226.08 251.584 1226.74L249.857 1223.7C248.706 1224.35 247.549 1225 246.386 1225.63L248.069 1228.7C246.891 1229.35 245.706 1229.99 244.516 1230.62L242.877 1227.53C241.707 1228.14 240.531 1228.76 239.349 1229.36L240.944 1232.48C239.751 1233.09 238.553 1233.69 237.348 1234.29L235.799 1231.15C234.609 1231.73 233.414 1232.31 232.213 1232.89L233.718 1236.05C232.507 1236.62 231.29 1237.19 230.067 1237.75L228.607 1234.57C227.405 1235.13 226.197 1235.67 224.984 1236.21L226.4 1239.41C225.172 1239.95 223.939 1240.48 222.7 1241.01L221.329 1237.79C220.108 1238.31 218.882 1238.82 217.651 1239.33L218.977 1242.57C217.738 1243.07 216.495 1243.57 215.246 1244.06L213.965 1240.81C212.731 1241.29 211.492 1241.77 210.248 1242.24L211.484 1245.51C210.226 1245.99 208.963 1246.45 207.695 1246.91L206.505 1243.62C205.262 1244.07 204.014 1244.51 202.762 1244.95L203.908 1248.25C202.64 1248.69 201.368 1249.12 200.092 1249.55L198.991 1246.23C197.729 1246.64 196.463 1247.05 195.192 1247.46L196.247 1250.79C194.972 1251.2 193.692 1251.59 192.407 1251.98L191.397 1248.63C190.129 1249.01 188.856 1249.38 187.579 1249.75L188.544 1253.11C187.252 1253.48 185.955 1253.85 184.655 1254.2L183.735 1250.82C182.457 1251.17 181.176 1251.51 179.89 1251.84L180.764 1255.23C179.467 1255.57 178.166 1255.89 176.861 1256.21L176.032 1252.81C174.742 1253.13 173.448 1253.43 172.151 1253.73L172.934 1257.14C171.626 1257.44 170.314 1257.74 168.998 1258.02L168.26 1254.6C166.967 1254.88 165.67 1255.15 164.37 1255.41L165.063 1258.84C163.748 1259.11 162.429 1259.36 161.106 1259.61L160.458 1256.17C159.151 1256.42 157.841 1256.66 156.527 1256.89L157.13 1260.34C155.813 1260.57 154.493 1260.79 153.17 1261L152.612 1257.55C151.303 1257.76 149.991 1257.96 148.676 1258.16L149.189 1261.62C147.859 1261.82 146.525 1262 145.188 1262.18L144.721 1258.72C143.409 1258.89 142.094 1259.06 140.776 1259.22L141.199 1262.7C139.87 1262.86 138.537 1263.01 137.202 1263.16L136.824 1259.68C135.503 1259.82 134.18 1259.96 132.853 1260.08L133.186 1263.57C131.85 1263.69 130.511 1263.81 129.169 1263.92L128.88 1260.44C127.563 1260.55 126.242 1260.65 124.918 1260.74L125.162 1264.23C123.824 1264.32 122.483 1264.41 121.139 1264.48L120.94 1260.99C119.611 1261.07 118.279 1261.13 116.945 1261.19L117.099 1264.69C115.765 1264.75 114.428 1264.8 113.088 1264.84L112.977 1261.34C111.653 1261.38 110.326 1261.42 108.997 1261.44L109.064 1264.94C107.72 1264.97 106.373 1264.99 105.025 1264.99L105.003 1261.49C104.336 1261.5 103.668 1261.5 103 1261.5C102.332 1261.5 101.664 1261.5 100.997 1261.49L100.975 1264.99C99.6263 1264.99 98.28 1264.97 96.9362 1264.94L97.0024 1261.44C95.6732 1261.42 94.3465 1261.38 93.0223 1261.34L92.9119 1264.84C91.5721 1264.8 90.2349 1264.75 88.9002 1264.69L89.0548 1261.19C87.7206 1261.13 86.3889 1261.07 85.06 1260.99L84.8609 1264.48C83.5171 1264.41 82.176 1264.32 80.8376 1264.23L81.0814 1260.74C79.7579 1260.65 78.4371 1260.55 77.1192 1260.44L76.8309 1263.92C75.4889 1263.81 74.1497 1263.69 72.8135 1263.57L73.1465 1260.08C71.82 1259.96 70.4965 1259.82 69.176 1259.68L68.7981 1263.16C67.4626 1263.01 66.1302 1262.86 64.8009 1262.7L65.2237 1259.22C63.9057 1259.06 62.5908 1258.89 61.279 1258.72L60.8114 1262.18C59.4745 1262 58.1409 1261.82 56.8107 1261.62L57.3235 1258.16C56.0083 1257.96 54.6964 1257.76 53.3879 1257.55L52.83 1261C51.5065 1260.79 50.1864 1260.57 48.8697 1260.34L49.4726 1256.89C48.1588 1256.66 46.8484 1256.42 45.5417 1256.17L44.8935 1259.61C43.5708 1259.36 42.2517 1259.11 40.9363 1258.84L41.6297 1255.41C40.3293 1255.15 39.0327 1254.88 37.7398 1254.6L37.0013 1258.02C35.6854 1257.73 34.3734 1257.44 33.0653 1257.14L33.8491 1253.73C32.5513 1253.43 31.2575 1253.13 29.9676 1252.81L29.1385 1256.21C27.8335 1255.89 26.5326 1255.57 25.2358 1255.23L26.1102 1251.84C24.8242 1251.51 23.5423 1251.17 22.2646 1250.82L21.345 1254.2C20.0443 1253.85 18.7479 1253.48 17.4558 1253.11L18.4208 1249.75C17.1438 1249.38 15.8712 1249.01 14.6029 1248.63L13.5928 1251.98C12.3082 1251.59 11.0281 1251.2 9.75252 1250.79L10.8078 1247.46C9.53685 1247.05 8.27049 1246.64 7.00879 1246.23L5.9082 1249.55C4.63142 1249.12 3.35933 1248.69 2.092 1248.25L3.23773 1244.95C1.98543 1244.51 0.737869 1244.07 -0.504868 1243.62L-1.69562 1246.91C-2.96341 1246.45 -4.22626 1245.99 -5.4841 1245.51L-4.24815 1242.24C-5.49214 1241.77 -6.73111 1241.29 -7.965 1240.81L-9.246 1244.06C-10.4949 1243.57 -11.7387 1243.07 -12.9772 1242.57L-11.6514 1239.33C-12.8826 1238.82 -14.1086 1238.31 -15.3293 1237.79L-16.7001 1241.01C-17.9389 1240.48 -19.1722 1239.95 -20.4001 1239.41L-18.9844 1236.21C-20.1973 1235.67 -21.4049 1235.12 -22.6069 1234.57L-24.0673 1237.75C-25.2899 1237.19 -26.5069 1236.62 -27.7182 1236.05L-26.213 1232.89C-27.414 1232.31 -28.6093 1231.73 -29.7987 1231.15L-31.3486 1234.29C-32.5529 1233.69 -33.7513 1233.09 -34.9439 1232.48L-33.3496 1229.36C-34.5315 1228.76 -35.7075 1228.14 -36.8774 1227.53L-38.5161 1230.62C-39.7065 1229.99 -40.8907 1229.35 -42.0688 1228.7L-40.3857 1225.63C-41.549 1225 -42.7061 1224.35 -43.857 1223.7L-45.5842 1226.74C-46.7527 1226.08 -47.9149 1225.41 -49.0706 1224.73L-47.2994 1221.71C-48.4469 1221.04 -49.5878 1220.36 -50.7222 1219.67L-52.5375 1222.66C-53.6865 1221.96 -54.8289 1221.26 -55.9646 1220.55L-54.1056 1217.58C-55.2289 1216.88 -56.3455 1216.17 -57.4553 1215.45L-59.3579 1218.39C-60.489 1217.65 -61.6132 1216.91 -62.7304 1216.17L-60.7842 1213.26C-61.8869 1212.52 -62.9826 1211.77 -64.0713 1211.02L-66.0608 1213.9C-67.1654 1213.14 -68.2628 1212.37 -69.3531 1211.59L-67.3205 1208.74C-68.4033 1207.97 -69.4787 1207.19 -70.5468 1206.4L-72.6224 1209.22C-73.7047 1208.42 -74.7797 1207.62 -75.8471 1206.81L-73.7287 1204.02C-74.7832 1203.22 -75.8301 1202.41 -76.8694 1201.59L-79.0302 1204.35C-80.0903 1203.52 -81.1427 1202.68 -82.1872 1201.83L-79.984 1199.11C-81.0144 1198.28 -82.0371 1197.43 -83.0518 1196.59L-85.2971 1199.27C-86.3269 1198.41 -87.3487 1197.54 -88.3624 1196.67L-86.0754 1194.02C-87.0814 1193.15 -88.0793 1192.27 -89.069 1191.39L-91.3977 1194C-92.4012 1193.11 -93.3965 1192.21 -94.3833 1191.3L-92.0133 1188.73C-92.9875 1187.83 -93.9534 1186.93 -94.9108 1186.02L-97.3217 1188.55C-98.2983 1187.62 -99.2663 1186.69 -100.226 1185.75L-97.7739 1183.25C-98.7196 1182.32 -99.6567 1181.39 -100.585 1180.45L-103.077 1182.9C-104.02 1181.95 -104.954 1180.99 -105.879 1180.02L-103.347 1177.6C-104.264 1176.64 -105.171 1175.67 -106.07 1174.7L-108.641 1177.07C-109.553 1176.09 -110.455 1175.09 -111.349 1174.09L-108.738 1171.76C-109.619 1170.77 -110.492 1169.78 -111.355 1168.78L-114.004 1171.07C-114.884 1170.05 -115.754 1169.02 -116.615 1167.99L-113.927 1165.75C-114.775 1164.73 -115.613 1163.71 -116.442 1162.68L-119.168 1164.88C-120.01 1163.83 -120.843 1162.78 -121.666 1161.72L-118.903 1159.57C-119.717 1158.52 -120.521 1157.47 -121.315 1156.41L-124.115 1158.51C-124.921 1157.44 -125.717 1156.36 -126.503 1155.27L-123.667 1153.22C-124.442 1152.15 -125.207 1151.07 -125.962 1149.98L-128.834 1151.99C-129.603 1150.88 -130.362 1149.77 -131.11 1148.66L-128.203 1146.71C-128.939 1145.61 -129.666 1144.5 -130.381 1143.39L-133.323 1145.29C-134.051 1144.16 -134.769 1143.03 -135.476 1141.89L-132.501 1140.04C-133.198 1138.92 -133.884 1137.79 -134.56 1136.65L-137.568 1138.44C-138.255 1137.29 -138.93 1136.13 -139.595 1134.96L-136.555 1133.23C-137.21 1132.08 -137.854 1130.92 -138.487 1129.76L-141.559 1131.44C-142.203 1130.26 -142.836 1129.08 -143.458 1127.89L-140.356 1126.27C-140.967 1125.1 -141.568 1123.92 -142.157 1122.74L-145.289 1124.3C-145.889 1123.1 -146.477 1121.89 -147.053 1120.68L-143.892 1119.17C-144.46 1117.98 -145.016 1116.78 -145.56 1115.58L-148.749 1117.02C-149.302 1115.8 -149.844 1114.57 -150.374 1113.34L-147.158 1111.95C-147.68 1110.74 -148.189 1109.52 -148.687 1108.3L-151.929 1109.62C-152.435 1108.37 -152.93 1107.13 -153.412 1105.87L-150.145 1104.62C-150.62 1103.38 -151.082 1102.15 -151.532 1100.9L-154.822 1102.1C-155.28 1100.84 -155.725 1099.57 -156.158 1098.3L-152.845 1097.17C-153.271 1095.92 -153.685 1094.67 -154.086 1093.41L-157.421 1094.47C-157.829 1093.19 -158.224 1091.91 -158.608 1090.62L-155.253 1089.62C-155.629 1088.36 -155.992 1087.09 -156.343 1085.82L-159.717 1086.75C-160.075 1085.45 -160.419 1084.16 -160.751 1082.85L-157.36 1081.99C-157.685 1080.71 -157.999 1079.43 -158.3 1078.14L-161.708 1078.94C-162.013 1077.63 -162.305 1076.32 -162.585 1075.01L-159.162 1074.28C-159.436 1072.99 -159.698 1071.7 -159.947 1070.4L-163.385 1071.06C-163.638 1069.74 -163.878 1068.42 -164.105 1067.09L-160.656 1066.5C-160.878 1065.2 -161.088 1063.9 -161.285 1062.6L-164.745 1063.12C-164.946 1061.79 -165.133 1060.46 -165.307 1059.13L-161.836 1058.67C-162.007 1057.37 -162.165 1056.06 -162.309 1054.74L-165.788 1055.12C-165.935 1053.79 -166.068 1052.46 -166.188 1051.12L-162.703 1050.81C-162.821 1049.49 -162.926 1048.18 -163.018 1046.86L-166.51 1047.1C-166.603 1045.76 -166.683 1044.42 -166.75 1043.08L-163.254 1042.9C-163.319 1041.59 -163.372 1040.27 -163.411 1038.96L-166.91 1039.06C-166.95 1037.72 -166.977 1036.37 -166.99 1035.02L-163.49 1034.99C-163.497 1034.33 -163.5 1033.66 -163.5 1033C-163.5 1032.34 -163.497 1031.67 -163.49 1031.01L-166.99 1030.98C-166.977 1029.63 -166.95 1028.28 -166.91 1026.94L-163.411 1027.04C-163.372 1025.73 -163.319 1024.41 -163.254 1023.1L-166.75 1022.92C-166.683 1021.58 -166.603 1020.24 -166.509 1018.9L-163.018 1019.14C-162.926 1017.82 -162.821 1016.51 -162.702 1015.19L-166.188 1014.88C-166.068 1013.54 -165.935 1012.21 -165.788 1010.87L-162.309 1011.26C-162.165 1009.94 -162.007 1008.63 -161.836 1007.33L-165.307 1006.87C-165.133 1005.54 -164.946 1004.21 -164.745 1002.88L-161.284 1003.4C-161.088 1002.1 -160.878 1000.8 -160.656 999.499L-164.105 998.908C-163.878 997.582 -163.638 996.26 -163.385 994.941L-159.947 995.602C-159.698 994.304 -159.436 993.01 -159.161 991.719L-162.585 990.99C-162.305 989.677 -162.013 988.368 -161.708 987.063L-158.3 987.859C-157.999 986.572 -157.685 985.29 -157.359 984.011L-160.751 983.146C-160.419 981.844 -160.074 980.545 -159.717 979.251L-156.343 980.183C-155.992 978.911 -155.629 977.643 -155.253 976.379L-158.608 975.381C-158.224 974.093 -157.829 972.809 -157.42 971.529L-154.086 972.592C-153.685 971.334 -153.271 970.08 -152.845 968.831L-156.158 967.702C-155.725 966.431 -155.28 965.165 -154.822 963.903L-151.532 965.096C-151.082 963.854 -150.619 962.617 -150.145 961.384L-153.412 960.128C-152.93 958.874 -152.435 957.625 -151.929 956.381L-148.687 957.701C-148.189 956.478 -147.68 955.259 -147.158 954.046L-150.374 952.664C-149.844 951.431 -149.302 950.202 -148.749 948.978L-145.56 950.421C-145.016 949.217 -144.46 948.019 -143.892 946.825L-147.053 945.323C-146.477 944.11 -145.889 942.902 -145.289 941.7L-142.157 943.262C-141.568 942.08 -140.967 940.904 -140.356 939.733L-143.458 938.113C-142.836 936.922 -142.203 935.737 -141.559 934.558L-138.487 936.235C-137.854 935.076 -137.21 933.922 -136.555 932.773L-139.595 931.039C-138.93 929.874 -138.255 928.714 -137.568 927.559L-134.56 929.349C-133.884 928.213 -133.198 927.082 -132.501 925.957L-135.476 924.113C-134.769 922.973 -134.051 921.838 -133.323 920.708L-130.381 922.605C-129.666 921.495 -128.939 920.391 -128.203 919.293L-131.11 917.344C-130.362 916.228 -129.603 915.118 -128.834 914.015L-125.962 916.015C-125.207 914.931 -124.442 913.853 -123.667 912.781L-126.503 910.73C-125.717 909.643 -124.921 908.562 -124.115 907.488L-121.315 909.588C-120.521 908.529 -119.717 907.477 -118.903 906.43L-121.666 904.282C-120.843 903.223 -120.01 902.171 -119.168 901.125L-116.442 903.32C-115.613 902.291 -114.775 901.268 -113.927 900.252L-116.615 898.01C-115.754 896.978 -114.884 895.952 -114.004 894.933L-111.355 897.22C-110.492 896.22 -109.619 895.227 -108.738 894.239L-111.349 891.908C-110.455 890.908 -109.553 889.914 -108.641 888.927L-106.07 891.301C-105.171 890.328 -104.264 889.361 -103.347 888.4L-105.879 885.984C-104.954 885.015 -104.02 884.052 -103.077 883.096L-100.585 885.554C-99.6566 884.612 -98.7195 883.677 -97.7738 882.749L-100.225 880.251C-99.2662 879.31 -98.2982 878.375 -97.3216 877.447L-94.9107 879.984C-93.9533 879.074 -92.9874 878.171 -92.0132 877.275L-94.3832 874.699C-93.3964 873.791 -92.4011 872.89 -91.3976 871.996L-89.0689 874.608C-88.0792 873.726 -87.0813 872.851 -86.0753 871.983L-88.3624 869.333C-87.3486 868.458 -86.3268 867.59 -85.297 866.729L-83.0517 869.414C-82.037 868.565 -81.0143 867.723 -79.9839 866.888L-82.1871 864.169C-81.1426 863.323 -80.0902 862.484 -79.0301 861.652L-76.8693 864.405C-75.83 863.589 -74.7831 862.781 -73.7286 861.979L-75.847 859.193C-74.7796 858.381 -73.7046 857.577 -72.6223 856.78L-70.5467 859.598C-69.4786 858.811 -68.4032 858.032 -67.3204 857.259L-69.353 854.41C-68.2627 853.632 -67.1653 852.862 -66.0607 852.099L-64.0712 854.978C-62.9825 854.226 -61.8868 853.481 -60.7841 852.743L-62.7303 849.834C-61.6131 849.087 -60.4889 848.347 -59.3578 847.614L-57.4553 850.552C-56.3454 849.833 -55.2288 849.122 -54.1055 848.418L-55.9645 845.452C-54.8288 844.74 -53.6864 844.036 -52.5374 843.339L-50.7221 846.331C-49.5877 845.643 -48.4468 844.962 -47.2993 844.289L-49.0705 841.27C-47.9148 840.592 -46.7526 839.922 -45.5841 839.259L-43.8569 842.303C-42.706 841.65 -41.5489 841.004 -40.3856 840.366L-42.0687 837.298C-40.8906 836.651 -39.7064 836.013 -38.516 835.382L-36.8773 838.475C-35.7074 837.855 -34.5314 837.243 -33.3495 836.638L-34.9438 833.522C-33.7512 832.912 -32.5528 832.309 -31.3484 831.715L-29.7986 834.853C-28.6092 834.265 -27.4139 833.686 -26.2129 833.114L-27.7181 829.954C-26.5068 829.377 -25.2898 828.808 -24.0672 828.246L-22.6068 831.427C-21.4047 830.875 -20.1972 830.331 -18.9842 829.794L-20.4 826.593C-19.1721 826.05 -17.9387 825.515 -16.7 824.988L-15.3291 828.208C-14.1084 827.688 -12.8824 827.177 -11.6512 826.673L-12.9771 823.433C-11.7385 822.926 -10.4947 822.427 -9.24585 821.936L-7.96484 825.193C-6.73094 824.708 -5.49196 824.231 -4.24799 823.761L-5.48392 820.487C-4.22607 820.012 -2.96323 819.545 -1.69543 819.086L-0.504684 822.378C0.738052 821.928 1.98563 821.486 3.23793 821.052L2.09219 817.745C3.35953 817.306 4.63162 816.875 5.9084 816.452L7.00899 819.775C8.27069 819.357 9.53705 818.947 10.808 818.545L9.75273 815.208C11.0283 814.804 12.3084 814.409 13.593 814.022L14.6031 817.373C15.8714 816.991 17.144 816.616 18.421 816.25L17.4561 812.886C18.7482 812.515 20.0446 812.153 21.3453 811.799L22.2648 815.176C23.5425 814.828 24.8244 814.488 26.1104 814.156L25.2361 810.767C26.5329 810.432 27.8338 810.106 29.1387 809.788L29.9679 813.188C31.2577 812.874 32.5516 812.567 33.8493 812.269L33.0655 808.858C34.3736 808.557 35.6857 808.265 37.0015 807.981L37.7401 811.402C39.0329 811.123 40.3296 810.852 41.6299 810.589L40.9365 807.159C42.252 806.893 43.5711 806.635 44.8938 806.386L45.542 809.825C46.8487 809.579 48.159 809.341 49.4729 809.111L48.87 805.664C50.1866 805.433 51.5067 805.211 52.8303 804.998L53.3882 808.453C54.6967 808.242 56.0086 808.039 57.3238 807.844L56.811 804.381C58.1412 804.184 59.4748 803.996 60.8117 803.816L61.2793 807.284C62.591 807.107 63.906 806.939 65.224 806.778L64.8012 803.304C66.1305 803.142 67.4629 802.989 68.7984 802.844L69.1763 806.323C70.4968 806.18 71.8203 806.045 73.1468 805.918L72.8138 802.434C74.15 802.306 75.4892 802.187 76.8312 802.076L77.1195 805.564C78.4374 805.455 79.7582 805.354 81.0817 805.262L80.8379 801.77C82.1763 801.677 83.5174 801.592 84.8612 801.515L85.0603 805.01C86.3893 804.934 87.7209 804.866 89.0551 804.807L88.9005 801.311C90.2352 801.252 91.5724 801.201 92.9122 801.159L93.0226 804.657C94.3468 804.615 95.6736 804.582 97.0027 804.557L96.9365 801.057C98.2803 801.032 99.6266 801.015 100.975 801.006L100.997 804.506C101.664 804.502 102.332 804.5 103 804.5C103.668 804.5 104.336 804.502 105.003 804.506L105.025 801.006C106.374 801.015 107.72 801.032 109.064 801.057L108.998 804.557C110.327 804.582 111.653 804.615 112.978 804.657L113.088 801.159C114.428 801.201 115.765 801.252 117.1 801.311L116.945 804.807C118.279 804.866 119.611 804.934 120.94 805.01L121.139 801.515C122.483 801.592 123.824 801.677 125.162 801.77L124.919 805.262C126.242 805.354 127.563 805.455 128.881 805.564L129.169 802.076C130.511 802.187 131.85 802.306 133.187 802.434L132.853 805.918C134.18 806.045 135.503 806.18 136.824 806.323L137.202 802.844C138.537 802.989 139.87 803.142 141.199 803.304L140.776 806.778C142.094 806.939 143.409 807.107 144.721 807.284L145.189 803.816C146.525 803.996 147.859 804.184 149.189 804.382L148.676 807.844C149.992 808.039 151.304 808.242 152.612 808.453L153.17 804.998C154.493 805.211 155.814 805.433 157.13 805.664L156.527 809.111C157.841 809.341 159.152 809.579 160.458 809.825L161.106 806.386C162.429 806.635 163.748 806.893 165.064 807.159L164.37 810.589C165.671 810.852 166.967 811.123 168.26 811.402L168.999 807.981C170.315 808.265 171.627 808.557 172.935 808.858L172.151 812.269C173.449 812.567 174.742 812.874 176.032 813.188L176.861 809.788C178.166 810.106 179.467 810.432 180.764 810.767L179.89 814.156C181.176 814.488 182.458 814.828 183.735 815.176L184.655 811.799C185.956 812.153 187.252 812.515 188.544 812.886L187.579 816.25C188.856 816.616 190.129 816.991 191.397 817.373L192.407 814.022C193.692 814.409 194.972 814.804 196.247 815.208L195.192 818.545C196.463 818.947 197.729 819.357 198.991 819.775L200.092 816.452C201.369 816.875 202.641 817.306 203.908 817.745L202.762 821.052C204.015 821.486 205.262 821.928 206.505 822.378L207.696 819.086C208.963 819.545 210.226 820.012 211.484 820.487L210.248 823.761C211.492 824.231 212.731 824.708 213.965 825.193L215.246 821.936C216.495 822.427 217.739 822.927 218.977 823.434L217.651 826.673C218.883 827.177 220.109 827.688 221.329 828.208L222.7 824.988C223.939 825.515 225.172 826.05 226.4 826.593L224.984 829.794C226.197 830.331 227.405 830.875 228.607 831.427L230.067 828.246C231.29 828.808 232.507 829.377 233.718 829.954L232.213 833.114C233.414 833.686 234.609 834.265 235.799 834.853L237.349 831.715C238.553 832.309 239.751 832.912 240.944 833.522L239.35 836.638C240.531 837.243 241.707 837.855 242.877 838.475L244.516 835.382C245.706 836.013 246.891 836.651 248.069 837.298L246.386 840.366C247.549 841.004 248.706 841.65 249.857 842.303L251.584 839.259C252.753 839.922 253.915 840.592 255.071 841.27L253.299 844.289C254.447 844.962 255.588 845.643 256.722 846.331L258.537 843.339C259.687 844.036 260.829 844.74 261.965 845.452L260.106 848.418C261.229 849.122 262.346 849.833 263.455 850.552L265.358 847.614C266.489 848.347 267.613 849.087 268.73 849.834L266.784 852.743C267.887 853.481 268.983 854.226 270.071 854.978L272.061 852.099C273.165 852.862 274.263 853.632 275.353 854.41L273.321 857.259C274.403 858.032 275.479 858.811 276.547 859.598L278.622 856.78C279.705 857.577 280.78 858.381 281.847 859.193L279.729 861.979C280.783 862.781 281.83 863.589 282.869 864.405L285.03 861.652C286.09 862.484 287.143 863.323 288.187 864.169L285.984 866.889C287.014 867.723 288.037 868.565 289.052 869.414L291.297 866.729C292.327 867.59 293.349 868.458 294.362 869.333L292.075 871.983C293.081 872.851 294.079 873.726 295.069 874.608L297.398 871.996C298.401 872.89 299.396 873.791 300.383 874.699L298.013 877.275C298.988 878.171 299.953 879.075 300.911 879.984L303.322 877.447C304.298 878.375 305.266 879.31 306.226 880.251L303.774 882.749C304.72 883.678 305.657 884.612 306.585 885.554L309.077 883.096C310.02 884.052 310.954 885.015 311.879 885.984L309.347 888.401C310.264 889.361 311.171 890.328 312.07 891.301L314.641 888.927C315.553 889.914 316.455 890.908 317.349 891.909L314.738 894.24C315.619 895.227 316.492 896.22 317.355 897.22L320.004 894.933C320.884 895.953 321.754 896.978 322.615 898.01L319.927 900.252C320.775 901.268 321.613 902.291 322.442 903.32L325.168 901.125C326.01 902.171 326.843 903.223 327.666 904.282L324.903 906.43C325.717 907.477 326.521 908.529 327.315 909.588L330.115 907.488C330.921 908.563 331.717 909.643 332.503 910.73L329.667 912.781C330.442 913.853 331.207 914.931 331.962 916.015L334.834 914.015C335.603 915.119 336.362 916.228 337.11 917.344L334.203 919.293C334.939 920.392 335.666 921.496 336.381 922.605L339.323 920.708C340.051 921.838 340.769 922.973 341.476 924.114L338.501 925.957C339.198 927.082 339.884 928.213 340.56 929.349L343.568 927.56C344.255 928.714 344.93 929.874 345.595 931.039L342.555 932.773C343.21 933.922 343.854 935.076 344.487 936.235L347.559 934.558C348.203 935.737 348.836 936.922 349.458 938.113L346.356 939.733C346.967 940.904 347.568 942.08 348.157 943.262L351.289 941.7C351.889 942.902 352.477 944.11 353.053 945.323L349.892 946.826C350.46 948.019 351.016 949.218 351.56 950.421L354.749 948.979C355.302 950.202 355.844 951.431 356.374 952.664L353.158 954.046C353.68 955.259 354.189 956.478 354.687 957.701L357.929 956.382C358.435 957.626 358.93 958.874 359.412 960.128L356.145 961.385C356.62 962.617 357.082 963.854 357.532 965.096L360.822 963.903C361.28 965.165 361.725 966.431 362.158 967.702L358.845 968.831C359.271 970.081 359.685 971.335 360.086 972.593L363.42 971.529C363.829 972.809 364.224 974.093 364.608 975.381L361.253 976.379C361.629 977.643 361.992 978.911 362.343 980.183L365.717 979.251C366.075 980.546 366.419 981.844 366.751 983.147L363.359 984.011C363.685 985.29 363.999 986.573 364.3 987.86L367.708 987.063C368.013 988.368 368.305 989.678 368.585 990.991L365.162 991.719C365.436 993.01 365.698 994.304 365.948 995.602L369.385 994.942C369.638 996.26 369.878 997.582 370.105 998.908L366.656 999.499C366.878 1000.8 367.088 1002.1 367.285 1003.4L370.745 1002.88C370.946 1004.21 371.133 1005.54 371.307 1006.87L367.836 1007.33C368.007 1008.63 368.165 1009.94 368.309 1011.26L371.788 1010.88C371.935 1012.21 372.068 1013.54 372.188 1014.88L368.703 1015.19C368.821 1016.51 368.926 1017.82 369.018 1019.14L372.51 1018.9C372.603 1020.24 372.683 1021.58 372.75 1022.92L369.254 1023.1C369.319 1024.41 369.372 1025.73 369.411 1027.04L372.91 1026.94Z" stroke="#E1B9B1" stroke-width="7" stroke-dasharray="4 4"/>
</g>
<defs>
<clipPath id="clip0_2011_26">
<rect width="1920" height="1075" fill="white"/>
</clipPath>
</defs>
</svg>
