<svg width="1920" height="1266" viewBox="0 0 1920 1266" fill="none" xmlns="http://www.w3.org/2000/svg">
<g clip-path="url(#clip0_2006_21)">
<rect width="1920" height="1266" fill="#E1B9B1"/>
<path d="M1216.11 868.627C1320.31 371.528 1739.56 586.799 1936.15 756.572L2020.68 983.632L2099.45 1342.26L1814.7 1459.83C1571.75 1469.89 1111.9 1365.73 1216.11 868.627Z" fill="white" fill-opacity="0.34"/>
<path d="M2136.91 667.94C2136.95 669.283 2136.98 670.628 2136.99 671.976L2133.49 672.011C2133.5 672.673 2133.5 673.336 2133.5 674C2133.5 674.664 2133.5 675.327 2133.49 675.99L2136.99 676.024C2136.98 677.372 2136.95 678.718 2136.91 680.06L2133.41 679.956C2133.37 681.275 2133.32 682.591 2133.25 683.905L2136.75 684.079C2136.68 685.422 2136.6 686.763 2136.51 688.101L2133.02 687.857C2132.93 689.177 2132.82 690.495 2132.7 691.809L2136.19 692.122C2136.07 693.46 2135.93 694.794 2135.79 696.125L2132.31 695.742C2132.16 697.056 2132.01 698.367 2131.84 699.674L2135.31 700.127C2135.13 701.461 2134.95 702.792 2134.75 704.12L2131.28 703.598C2131.09 704.902 2130.88 706.204 2130.66 707.501L2134.11 708.092C2133.88 709.418 2133.64 710.74 2133.38 712.059L2129.95 711.398C2129.7 712.696 2129.44 713.99 2129.16 715.281L2132.58 716.01C2132.31 717.323 2132.01 718.632 2131.71 719.937L2128.3 719.141C2128 720.427 2127.69 721.71 2127.36 722.989L2130.75 723.854C2130.42 725.156 2130.07 726.455 2129.72 727.749L2126.34 726.818C2125.99 728.089 2125.63 729.357 2125.25 730.621L2128.61 731.619C2128.22 732.907 2127.83 734.191 2127.42 735.471L2124.09 734.408C2123.68 735.666 2123.27 736.92 2122.85 738.169L2126.16 739.298C2125.73 740.569 2125.28 741.835 2124.82 743.097L2121.53 741.904C2121.08 743.146 2120.62 744.383 2120.15 745.616L2123.41 746.872C2122.93 748.126 2122.44 749.375 2121.93 750.619L2118.69 749.299C2118.19 750.522 2117.68 751.741 2117.16 752.954L2120.37 754.336C2119.84 755.569 2119.3 756.798 2118.75 758.022L2115.56 756.579C2115.02 757.783 2114.46 758.981 2113.89 760.175L2117.05 761.677C2116.48 762.89 2115.89 764.098 2115.29 765.3L2112.16 763.738C2111.57 764.92 2110.97 766.096 2110.36 767.267L2113.46 768.887C2112.84 770.078 2112.2 771.263 2111.56 772.442L2108.49 770.765C2107.85 771.924 2107.21 773.078 2106.55 774.227L2109.59 775.961C2108.93 777.126 2108.25 778.286 2107.57 779.441L2104.56 777.651C2103.88 778.787 2103.2 779.918 2102.5 781.043L2105.48 782.887C2104.77 784.027 2104.05 785.162 2103.32 786.292L2100.38 784.395C2099.67 785.505 2098.94 786.609 2098.2 787.707L2101.11 789.656C2100.36 790.772 2099.6 791.882 2098.83 792.985L2095.96 790.985C2095.21 792.069 2094.44 793.147 2093.67 794.219L2096.5 796.27C2095.72 797.357 2094.92 798.438 2094.11 799.512L2091.31 797.412C2090.52 798.471 2089.72 799.523 2088.9 800.57L2091.67 802.718C2090.84 803.777 2090.01 804.829 2089.17 805.875L2086.44 803.68C2085.61 804.709 2084.77 805.732 2083.93 806.748L2086.61 808.99C2085.75 810.022 2084.88 811.048 2084 812.067L2081.35 809.78C2080.49 810.78 2079.62 811.773 2078.74 812.761L2081.35 815.092C2080.46 816.092 2079.55 817.086 2078.64 818.073L2076.07 815.699C2075.17 816.672 2074.26 817.639 2073.35 818.6L2075.88 821.016C2074.95 821.985 2074.02 822.948 2073.08 823.904L2070.58 821.446C2069.66 822.388 2068.72 823.323 2067.77 824.251L2070.23 826.749C2069.27 827.69 2068.3 828.625 2067.32 829.553L2064.91 827.016C2063.95 827.926 2062.99 828.829 2062.01 829.725L2064.38 832.301C2063.4 833.209 2062.4 834.11 2061.4 835.004L2059.07 832.392C2058.08 833.274 2057.08 834.149 2056.08 835.017L2058.36 837.667C2057.35 838.542 2056.33 839.41 2055.3 840.271L2053.05 837.586C2052.04 838.435 2051.01 839.277 2049.98 840.112L2052.19 842.831C2051.14 843.677 2050.09 844.516 2049.03 845.348L2046.87 842.595C2045.83 843.411 2044.78 844.219 2043.73 845.021L2045.85 847.807C2044.78 848.619 2043.7 849.423 2042.62 850.22L2040.55 847.402C2039.48 848.189 2038.4 848.968 2037.32 849.741L2039.35 852.59C2038.26 853.368 2037.17 854.138 2036.06 854.901L2034.07 852.022C2032.98 852.774 2031.89 853.519 2030.78 854.257L2032.73 857.166C2031.61 857.913 2030.49 858.653 2029.36 859.386L2027.46 856.448C2026.35 857.167 2025.23 857.878 2024.11 858.582L2025.96 861.548C2024.83 862.26 2023.69 862.964 2022.54 863.661L2020.72 860.669C2019.59 861.357 2018.45 862.038 2017.3 862.711L2019.07 865.73C2017.91 866.408 2016.75 867.078 2015.58 867.741L2013.86 864.697C2012.71 865.35 2011.55 865.996 2010.39 866.634L2012.07 869.702C2010.89 870.349 2009.71 870.987 2008.52 871.618L2006.88 868.525C2005.71 869.145 2004.53 869.757 2003.35 870.362L2004.94 873.478C2003.75 874.088 2002.55 874.691 2001.35 875.285L1999.8 872.147C1998.61 872.735 1997.41 873.314 1996.21 873.886L1997.72 877.046C1996.51 877.623 1995.29 878.193 1994.07 878.754L1992.61 875.573C1991.4 876.125 1990.2 876.669 1988.98 877.206L1990.4 880.407C1989.17 880.95 1987.94 881.485 1986.7 882.012L1985.33 878.792C1984.11 879.312 1982.88 879.823 1981.65 880.327L1982.98 883.567C1981.74 884.074 1980.49 884.573 1979.25 885.064L1977.96 881.807C1976.73 882.292 1975.49 882.769 1974.25 883.239L1975.48 886.513C1974.23 886.988 1972.96 887.455 1971.7 887.914L1970.5 884.622C1969.26 885.072 1968.01 885.514 1966.76 885.948L1967.91 889.255C1966.64 889.694 1965.37 890.125 1964.09 890.548L1962.99 887.225C1961.73 887.643 1960.46 888.053 1959.19 888.455L1960.25 891.792C1958.97 892.196 1957.69 892.591 1956.41 892.978L1955.4 889.627C1954.13 890.009 1952.86 890.384 1951.58 890.75L1952.54 894.114C1951.25 894.485 1949.96 894.847 1948.65 895.202L1947.74 891.824C1946.46 892.172 1945.18 892.512 1943.89 892.844L1944.76 896.233C1943.47 896.568 1942.17 896.894 1940.86 897.212L1940.03 893.812C1938.74 894.126 1937.45 894.433 1936.15 894.731L1936.93 898.142C1935.63 898.443 1934.31 898.735 1933 899.019L1932.26 895.598C1930.97 895.877 1929.67 896.148 1928.37 896.411L1929.06 899.841C1927.75 900.107 1926.43 900.365 1925.11 900.614L1924.46 897.175C1923.15 897.421 1921.84 897.659 1920.53 897.889L1921.13 901.336C1919.81 901.567 1918.49 901.789 1917.17 902.002L1916.61 898.547C1915.3 898.758 1913.99 898.961 1912.68 899.156L1913.19 902.618C1911.86 902.816 1910.53 903.004 1909.19 903.184L1908.72 899.716C1907.41 899.893 1906.09 900.061 1904.78 900.222L1905.2 903.696C1903.87 903.858 1902.54 904.011 1901.2 904.156L1900.82 900.677C1899.5 900.82 1898.18 900.955 1896.85 901.082L1897.19 904.566C1895.85 904.694 1894.51 904.813 1893.17 904.924L1892.88 901.436C1891.56 901.545 1890.24 901.646 1888.92 901.738L1889.16 905.23C1887.82 905.323 1886.48 905.408 1885.14 905.485L1884.94 901.99C1883.61 902.066 1882.28 902.134 1880.94 902.193L1881.1 905.689C1879.76 905.748 1878.43 905.799 1877.09 905.841L1876.98 902.343C1875.65 902.385 1874.33 902.418 1873 902.443L1873.06 905.943C1871.72 905.968 1870.37 905.985 1869.02 905.994L1869 902.494C1868.34 902.498 1867.67 902.5 1867 902.5C1866.33 902.5 1865.66 902.498 1865 902.494L1864.97 905.994C1863.63 905.985 1862.28 905.968 1860.94 905.943L1861 902.443C1859.67 902.418 1858.35 902.385 1857.02 902.343L1856.91 905.841C1855.57 905.799 1854.23 905.748 1852.9 905.689L1853.05 902.193C1851.72 902.134 1850.39 902.066 1849.06 901.99L1848.86 905.485C1847.52 905.408 1846.18 905.323 1844.84 905.23L1845.08 901.738C1843.76 901.646 1842.44 901.545 1841.12 901.436L1840.83 904.924C1839.49 904.813 1838.15 904.694 1836.81 904.566L1837.15 901.082C1835.82 900.955 1834.5 900.82 1833.18 900.677L1832.8 904.156C1831.46 904.011 1830.13 903.858 1828.8 903.696L1829.22 900.222C1827.91 900.061 1826.59 899.893 1825.28 899.716L1824.81 903.184C1823.47 903.004 1822.14 902.815 1820.81 902.618L1821.32 899.156C1820.01 898.961 1818.7 898.758 1817.39 898.547L1816.83 902.002C1815.51 901.789 1814.19 901.567 1812.87 901.336L1813.47 897.889C1812.16 897.659 1810.85 897.421 1809.54 897.175L1808.89 900.614C1807.57 900.365 1806.25 900.107 1804.94 899.841L1805.63 896.411C1804.33 896.148 1803.03 895.877 1801.74 895.598L1801 899.019C1799.69 898.735 1798.37 898.443 1797.07 898.142L1797.85 894.731C1796.55 894.433 1795.26 894.126 1793.97 893.812L1793.14 897.212C1791.83 896.894 1790.53 896.568 1789.24 896.233L1790.11 892.844C1788.82 892.512 1787.54 892.172 1786.26 891.824L1785.35 895.201C1784.04 894.847 1782.75 894.485 1781.46 894.114L1782.42 890.75C1781.14 890.384 1779.87 890.009 1778.6 889.627L1777.59 892.978C1776.31 892.591 1775.03 892.196 1773.75 891.792L1774.81 888.455C1773.54 888.053 1772.27 887.643 1771.01 887.225L1769.91 890.548C1768.63 890.125 1767.36 889.694 1766.09 889.255L1767.24 885.948C1765.99 885.514 1764.74 885.072 1763.5 884.622L1762.3 887.914C1761.04 887.455 1759.77 886.988 1758.52 886.513L1759.75 883.239C1758.51 882.769 1757.27 882.292 1756.04 881.807L1754.75 885.064C1753.51 884.573 1752.26 884.073 1751.02 883.566L1752.35 880.327C1751.12 879.823 1749.89 879.311 1748.67 878.792L1747.3 882.012C1746.06 881.485 1744.83 880.95 1743.6 880.407L1745.02 877.206C1743.8 876.669 1742.6 876.125 1741.39 875.573L1739.93 878.754C1738.71 878.192 1737.49 877.623 1736.28 877.046L1737.79 873.886C1736.59 873.314 1735.39 872.735 1734.2 872.147L1732.65 875.285C1731.45 874.691 1730.25 874.088 1729.06 873.478L1730.65 870.362C1729.47 869.757 1728.29 869.145 1727.12 868.525L1725.48 871.618C1724.29 870.987 1723.11 870.349 1721.93 869.702L1723.61 866.634C1722.45 865.996 1721.29 865.35 1720.14 864.697L1718.42 867.741C1717.25 867.078 1716.09 866.408 1714.93 865.73L1716.7 862.711C1715.55 862.038 1714.41 861.357 1713.28 860.669L1711.46 863.661C1710.31 862.964 1709.17 862.26 1708.04 861.548L1709.89 858.582C1708.77 857.878 1707.65 857.167 1706.54 856.448L1704.64 859.386C1703.51 858.653 1702.39 857.913 1701.27 857.166L1703.22 854.257C1702.11 853.519 1701.02 852.774 1699.93 852.022L1697.94 854.901C1696.83 854.138 1695.74 853.368 1694.65 852.59L1696.68 849.741C1695.6 848.968 1694.52 848.189 1693.45 847.402L1691.38 850.22C1690.3 849.423 1689.22 848.619 1688.15 847.807L1690.27 845.021C1689.22 844.219 1688.17 843.411 1687.13 842.595L1684.97 845.348C1683.91 844.516 1682.86 843.677 1681.81 842.831L1684.02 840.111C1682.99 839.277 1681.96 838.435 1680.95 837.586L1678.7 840.271C1677.67 839.41 1676.65 838.542 1675.64 837.667L1677.92 835.017C1676.92 834.149 1675.92 833.274 1674.93 832.392L1672.6 835.004C1671.6 834.11 1670.6 833.209 1669.62 832.301L1671.99 829.725C1671.01 828.829 1670.05 827.925 1669.09 827.016L1666.68 829.553C1665.7 828.625 1664.73 827.69 1663.77 826.749L1666.23 824.251C1665.28 823.322 1664.34 822.388 1663.41 821.446L1660.92 823.904C1659.98 822.948 1659.05 821.985 1658.12 821.016L1660.65 818.599C1659.74 817.639 1658.83 816.672 1657.93 815.699L1655.36 818.073C1654.45 817.086 1653.54 816.092 1652.65 815.091L1655.26 812.76C1654.38 811.773 1653.51 810.78 1652.65 809.78L1650 812.067C1649.12 811.047 1648.25 810.022 1647.39 808.99L1650.07 806.748C1649.23 805.732 1648.39 804.709 1647.56 803.68L1644.83 805.875C1643.99 804.829 1643.16 803.777 1642.33 802.718L1645.1 800.57C1644.28 799.523 1643.48 798.471 1642.69 797.412L1639.89 799.512C1639.08 798.437 1638.28 797.357 1637.5 796.27L1640.33 794.219C1639.56 793.147 1638.79 792.069 1638.04 790.985L1635.17 792.985C1634.4 791.882 1633.64 790.772 1632.89 789.656L1635.8 787.707C1635.06 786.608 1634.33 785.504 1633.62 784.395L1630.68 786.292C1629.95 785.162 1629.23 784.027 1628.52 782.886L1631.5 781.043C1630.8 779.918 1630.12 778.787 1629.44 777.651L1626.43 779.44C1625.75 778.286 1625.07 777.126 1624.4 775.961L1627.45 774.227C1626.79 773.078 1626.15 771.924 1625.51 770.765L1622.44 772.442C1621.8 771.263 1621.16 770.078 1620.54 768.887L1623.64 767.267C1623.03 766.096 1622.43 764.92 1621.84 763.738L1618.71 765.3C1618.11 764.098 1617.52 762.89 1616.95 761.677L1620.11 760.174C1619.54 758.981 1618.98 757.782 1618.44 756.579L1615.25 758.021C1614.7 756.798 1614.16 755.569 1613.63 754.336L1616.84 752.954C1616.32 751.741 1615.81 750.522 1615.31 749.299L1612.07 750.618C1611.56 749.374 1611.07 748.126 1610.59 746.872L1613.85 745.615C1613.38 744.383 1612.92 743.146 1612.47 741.904L1609.18 743.097C1608.72 741.835 1608.27 740.569 1607.84 739.298L1611.15 738.169C1610.73 736.919 1610.32 735.665 1609.91 734.407L1606.58 735.471C1606.17 734.191 1605.78 732.907 1605.39 731.619L1608.75 730.621C1608.37 729.357 1608.01 728.089 1607.66 726.817L1604.28 727.749C1603.93 726.454 1603.58 725.156 1603.25 723.853L1606.64 722.989C1606.31 721.71 1606 720.427 1605.7 719.14L1602.29 719.937C1601.99 718.632 1601.69 717.322 1601.42 716.009L1604.84 715.281C1604.56 713.99 1604.3 712.696 1604.05 711.398L1600.62 712.058C1600.36 710.74 1600.12 709.418 1599.89 708.092L1603.34 707.501C1603.12 706.203 1602.91 704.902 1602.72 703.598L1599.25 704.12C1599.05 702.792 1598.87 701.461 1598.69 700.126L1602.16 699.674C1601.99 698.366 1601.84 697.056 1601.69 695.742L1598.21 696.125C1598.07 694.794 1597.93 693.46 1597.81 692.122L1601.3 691.809C1601.18 690.494 1601.07 689.177 1600.98 687.857L1597.49 688.1C1597.4 686.763 1597.32 685.422 1597.25 684.078L1600.75 683.904C1600.68 682.591 1600.63 681.275 1600.59 679.955L1597.09 680.06C1597.05 678.717 1597.02 677.372 1597.01 676.024L1600.51 675.989C1600.5 675.327 1600.5 674.664 1600.5 674C1600.5 673.336 1600.5 672.673 1600.51 672.01L1597.01 671.976C1597.02 670.628 1597.05 669.282 1597.09 667.94L1600.59 668.044C1600.63 666.725 1600.68 665.409 1600.75 664.095L1597.25 663.921C1597.32 662.578 1597.4 661.237 1597.49 659.899L1600.98 660.143C1601.07 658.823 1601.18 657.505 1601.3 656.191L1597.81 655.878C1597.93 654.54 1598.07 653.206 1598.21 651.875L1601.69 652.258C1601.84 650.944 1601.99 649.633 1602.16 648.326L1598.69 647.873C1598.87 646.539 1599.05 645.208 1599.25 643.88L1602.72 644.402C1602.91 643.098 1603.12 641.796 1603.34 640.499L1599.89 639.908C1600.12 638.582 1600.36 637.26 1600.62 635.941L1604.05 636.602C1604.3 635.304 1604.56 634.01 1604.84 632.719L1601.42 631.99C1601.69 630.677 1601.99 629.368 1602.29 628.063L1605.7 628.859C1606 627.572 1606.31 626.29 1606.64 625.011L1603.25 624.146C1603.58 622.844 1603.93 621.545 1604.28 620.251L1607.66 621.183C1608.01 619.911 1608.37 618.643 1608.75 617.379L1605.39 616.381C1605.78 615.093 1606.17 613.809 1606.58 612.529L1609.91 613.592C1610.32 612.334 1610.73 611.08 1611.15 609.831L1607.84 608.702C1608.27 607.431 1608.72 606.165 1609.18 604.903L1612.47 606.096C1612.92 604.854 1613.38 603.617 1613.85 602.384L1610.59 601.128C1611.07 599.874 1611.56 598.625 1612.07 597.381L1615.31 598.701C1615.81 597.478 1616.32 596.259 1616.84 595.046L1613.63 593.664C1614.16 592.431 1614.7 591.202 1615.25 589.978L1618.44 591.421C1618.98 590.217 1619.54 589.019 1620.11 587.825L1616.95 586.323C1617.52 585.11 1618.11 583.902 1618.71 582.7L1621.84 584.262C1622.43 583.08 1623.03 581.904 1623.64 580.733L1620.54 579.113C1621.16 577.922 1621.8 576.737 1622.44 575.558L1625.51 577.235C1626.15 576.076 1626.79 574.922 1627.45 573.773L1624.41 572.039C1625.07 570.874 1625.75 569.714 1626.43 568.559L1629.44 570.349C1630.12 569.213 1630.8 568.082 1631.5 566.957L1628.52 565.113C1629.23 563.973 1629.95 562.838 1630.68 561.708L1633.62 563.605C1634.33 562.495 1635.06 561.391 1635.8 560.293L1632.89 558.344C1633.64 557.228 1634.4 556.118 1635.17 555.015L1638.04 557.015C1638.79 555.931 1639.56 554.853 1640.33 553.781L1637.5 551.73C1638.28 550.643 1639.08 549.562 1639.89 548.488L1642.69 550.588C1643.48 549.529 1644.28 548.477 1645.1 547.43L1642.33 545.282C1643.16 544.223 1643.99 543.171 1644.83 542.125L1647.56 544.32C1648.39 543.291 1649.23 542.268 1650.07 541.252L1647.39 539.01C1648.25 537.978 1649.12 536.952 1650 535.933L1652.65 538.22C1653.51 537.22 1654.38 536.227 1655.26 535.239L1652.65 532.908C1653.54 531.908 1654.45 530.914 1655.36 529.927L1657.93 532.301C1658.83 531.328 1659.74 530.361 1660.65 529.4L1658.12 526.984C1659.05 526.015 1659.98 525.052 1660.92 524.096L1663.42 526.554C1664.34 525.612 1665.28 524.677 1666.23 523.749L1663.77 521.251C1664.73 520.31 1665.7 519.375 1666.68 518.447L1669.09 520.984C1670.05 520.074 1671.01 519.171 1671.99 518.275L1669.62 515.699C1670.6 514.791 1671.6 513.89 1672.6 512.996L1674.93 515.608C1675.92 514.726 1676.92 513.851 1677.92 512.983L1675.64 510.333C1676.65 509.458 1677.67 508.59 1678.7 507.729L1680.95 510.414C1681.96 509.565 1682.99 508.723 1684.02 507.888L1681.81 505.169C1682.86 504.323 1683.91 503.484 1684.97 502.652L1687.13 505.405C1688.17 504.589 1689.22 503.781 1690.27 502.979L1688.15 500.193C1689.22 499.381 1690.3 498.577 1691.38 497.78L1693.45 500.598C1694.52 499.811 1695.6 499.032 1696.68 498.259L1694.65 495.41C1695.74 494.632 1696.83 493.862 1697.94 493.099L1699.93 495.978C1701.02 495.226 1702.11 494.481 1703.22 493.743L1701.27 490.834C1702.39 490.087 1703.51 489.347 1704.64 488.614L1706.54 491.552C1707.65 490.833 1708.77 490.122 1709.89 489.418L1708.04 486.452C1709.17 485.74 1710.31 485.036 1711.46 484.339L1713.28 487.331C1714.41 486.643 1715.55 485.962 1716.7 485.289L1714.93 482.27C1716.09 481.592 1717.25 480.922 1718.42 480.259L1720.14 483.303C1721.29 482.65 1722.45 482.004 1723.61 481.366L1721.93 478.298C1723.11 477.651 1724.29 477.013 1725.48 476.382L1727.12 479.475C1728.29 478.855 1729.47 478.243 1730.65 477.638L1729.06 474.522C1730.25 473.912 1731.45 473.309 1732.65 472.715L1734.2 475.853C1735.39 475.265 1736.59 474.686 1737.79 474.114L1736.28 470.954C1737.49 470.377 1738.71 469.808 1739.93 469.246L1741.39 472.427C1742.6 471.875 1743.8 471.331 1745.02 470.794L1743.6 467.593C1744.83 467.05 1746.06 466.515 1747.3 465.988L1748.67 469.208C1749.89 468.688 1751.12 468.177 1752.35 467.673L1751.02 464.433C1752.26 463.926 1753.51 463.427 1754.75 462.936L1756.04 466.193C1757.27 465.708 1758.51 465.231 1759.75 464.761L1758.52 461.487C1759.77 461.012 1761.04 460.545 1762.3 460.086L1763.5 463.378C1764.74 462.928 1765.99 462.486 1767.24 462.052L1766.09 458.745C1767.36 458.306 1768.63 457.875 1769.91 457.452L1771.01 460.775C1772.27 460.357 1773.54 459.947 1774.81 459.545L1773.75 456.208C1775.03 455.804 1776.31 455.409 1777.59 455.022L1778.6 458.373C1779.87 457.991 1781.14 457.616 1782.42 457.25L1781.46 453.886C1782.75 453.515 1784.04 453.153 1785.35 452.799L1786.26 456.176C1787.54 455.828 1788.82 455.488 1790.11 455.156L1789.24 451.767C1790.53 451.432 1791.83 451.106 1793.14 450.788L1793.97 454.188C1795.26 453.874 1796.55 453.567 1797.85 453.269L1797.07 449.858C1798.37 449.557 1799.69 449.265 1801 448.981L1801.74 452.402C1803.03 452.123 1804.33 451.852 1805.63 451.589L1804.94 448.159C1806.25 447.893 1807.57 447.635 1808.89 447.386L1809.54 450.825C1810.85 450.579 1812.16 450.341 1813.47 450.111L1812.87 446.664C1814.19 446.433 1815.51 446.211 1816.83 445.998L1817.39 449.453C1818.7 449.242 1820.01 449.039 1821.32 448.844L1820.81 445.381C1822.14 445.184 1823.47 444.996 1824.81 444.816L1825.28 448.284C1826.59 448.107 1827.91 447.939 1829.22 447.778L1828.8 444.304C1830.13 444.142 1831.46 443.989 1832.8 443.844L1833.18 447.323C1834.5 447.18 1835.82 447.045 1837.15 446.918L1836.81 443.434C1838.15 443.306 1839.49 443.187 1840.83 443.076L1841.12 446.564C1842.44 446.455 1843.76 446.354 1845.08 446.262L1844.84 442.77C1846.18 442.677 1847.52 442.592 1848.86 442.515L1849.06 446.01C1850.39 445.934 1851.72 445.866 1853.06 445.807L1852.9 442.311C1854.24 442.252 1855.57 442.201 1856.91 442.159L1857.02 445.657C1858.35 445.615 1859.67 445.582 1861 445.557L1860.94 442.057C1862.28 442.032 1863.63 442.015 1864.98 442.006L1865 445.506C1865.66 445.502 1866.33 445.5 1867 445.5C1867.67 445.5 1868.34 445.502 1869 445.506L1869.03 442.006C1870.37 442.015 1871.72 442.032 1873.06 442.057L1873 445.557C1874.33 445.582 1875.65 445.615 1876.98 445.657L1877.09 442.159C1878.43 442.201 1879.77 442.252 1881.1 442.311L1880.95 445.807C1882.28 445.866 1883.61 445.934 1884.94 446.01L1885.14 442.515C1886.48 442.592 1887.82 442.677 1889.16 442.77L1888.92 446.262C1890.24 446.354 1891.56 446.455 1892.88 446.564L1893.17 443.076C1894.51 443.187 1895.85 443.306 1897.19 443.434L1896.85 446.918C1898.18 447.045 1899.5 447.18 1900.82 447.323L1901.2 443.844C1902.54 443.989 1903.87 444.142 1905.2 444.304L1904.78 447.778C1906.09 447.939 1907.41 448.107 1908.72 448.284L1909.19 444.816C1910.53 444.996 1911.86 445.184 1913.19 445.382L1912.68 448.844C1913.99 449.039 1915.3 449.242 1916.61 449.453L1917.17 445.998C1918.49 446.211 1919.81 446.433 1921.13 446.664L1920.53 450.111C1921.84 450.341 1923.15 450.579 1924.46 450.825L1925.11 447.386C1926.43 447.635 1927.75 447.893 1929.06 448.159L1928.37 451.589C1929.67 451.852 1930.97 452.123 1932.26 452.402L1933 448.981C1934.31 449.265 1935.63 449.557 1936.93 449.858L1936.15 453.269C1937.45 453.567 1938.74 453.874 1940.03 454.188L1940.86 450.788C1942.17 451.106 1943.47 451.432 1944.76 451.767L1943.89 455.156C1945.18 455.488 1946.46 455.828 1947.74 456.176L1948.65 452.799C1949.96 453.153 1951.25 453.515 1952.54 453.886L1951.58 457.25C1952.86 457.616 1954.13 457.991 1955.4 458.373L1956.41 455.022C1957.69 455.409 1958.97 455.804 1960.25 456.208L1959.19 459.545C1960.46 459.947 1961.73 460.357 1962.99 460.775L1964.09 457.452C1965.37 457.875 1966.64 458.306 1967.91 458.745L1966.76 462.052C1968.01 462.486 1969.26 462.928 1970.5 463.378L1971.7 460.086C1972.96 460.545 1974.23 461.012 1975.48 461.487L1974.25 464.761C1975.49 465.231 1976.73 465.708 1977.96 466.193L1979.25 462.936C1980.49 463.427 1981.74 463.927 1982.98 464.434L1981.65 467.673C1982.88 468.177 1984.11 468.688 1985.33 469.208L1986.7 465.988C1987.94 466.515 1989.17 467.05 1990.4 467.593L1988.98 470.794C1990.2 471.331 1991.4 471.875 1992.61 472.427L1994.07 469.246C1995.29 469.808 1996.51 470.377 1997.72 470.954L1996.21 474.114C1997.41 474.686 1998.61 475.265 1999.8 475.853L2001.35 472.715C2002.55 473.309 2003.75 473.912 2004.94 474.522L2003.35 477.638C2004.53 478.243 2005.71 478.855 2006.88 479.475L2008.52 476.382C2009.71 477.013 2010.89 477.651 2012.07 478.298L2010.39 481.366C2011.55 482.004 2012.71 482.65 2013.86 483.303L2015.58 480.259C2016.75 480.922 2017.91 481.592 2019.07 482.27L2017.3 485.289C2018.45 485.962 2019.59 486.643 2020.72 487.331L2022.54 484.339C2023.69 485.036 2024.83 485.74 2025.96 486.452L2024.11 489.418C2025.23 490.122 2026.35 490.833 2027.46 491.552L2029.36 488.614C2030.49 489.347 2031.61 490.087 2032.73 490.834L2030.78 493.743C2031.89 494.481 2032.98 495.226 2034.07 495.978L2036.06 493.099C2037.17 493.862 2038.26 494.632 2039.35 495.41L2037.32 498.259C2038.4 499.032 2039.48 499.811 2040.55 500.598L2042.62 497.78C2043.7 498.577 2044.78 499.381 2045.85 500.193L2043.73 502.979C2044.78 503.781 2045.83 504.589 2046.87 505.405L2049.03 502.652C2050.09 503.484 2051.14 504.323 2052.19 505.169L2049.98 507.889C2051.01 508.723 2052.04 509.565 2053.05 510.414L2055.3 507.729C2056.33 508.59 2057.35 509.458 2058.36 510.333L2056.08 512.983C2057.08 513.851 2058.08 514.726 2059.07 515.608L2061.4 512.996C2062.4 513.89 2063.4 514.791 2064.38 515.699L2062.01 518.275C2062.99 519.171 2063.95 520.075 2064.91 520.984L2067.32 518.447C2068.3 519.375 2069.27 520.31 2070.23 521.251L2067.77 523.749C2068.72 524.678 2069.66 525.612 2070.59 526.554L2073.08 524.096C2074.02 525.052 2074.95 526.015 2075.88 526.984L2073.35 529.401C2074.26 530.361 2075.17 531.328 2076.07 532.301L2078.64 529.927C2079.55 530.914 2080.46 531.908 2081.35 532.909L2078.74 535.24C2079.62 536.227 2080.49 537.22 2081.35 538.22L2084 535.933C2084.88 536.953 2085.75 537.978 2086.61 539.01L2083.93 541.252C2084.77 542.268 2085.61 543.291 2086.44 544.32L2089.17 542.125C2090.01 543.171 2090.84 544.223 2091.67 545.282L2088.9 547.43C2089.72 548.477 2090.52 549.529 2091.31 550.588L2094.11 548.488C2094.92 549.563 2095.72 550.643 2096.5 551.73L2093.67 553.781C2094.44 554.853 2095.21 555.931 2095.96 557.015L2098.83 555.015C2099.6 556.119 2100.36 557.228 2101.11 558.344L2098.2 560.293C2098.94 561.392 2099.67 562.496 2100.38 563.605L2103.32 561.708C2104.05 562.838 2104.77 563.973 2105.48 565.114L2102.5 566.957C2103.2 568.082 2103.88 569.213 2104.56 570.349L2107.57 568.56C2108.25 569.714 2108.93 570.874 2109.6 572.039L2106.55 573.773C2107.21 574.922 2107.85 576.076 2108.49 577.235L2111.56 575.558C2112.2 576.737 2112.84 577.922 2113.46 579.113L2110.36 580.733C2110.97 581.904 2111.57 583.08 2112.16 584.262L2115.29 582.7C2115.89 583.902 2116.48 585.11 2117.05 586.323L2113.89 587.826C2114.46 589.019 2115.02 590.218 2115.56 591.421L2118.75 589.979C2119.3 591.202 2119.84 592.431 2120.37 593.664L2117.16 595.046C2117.68 596.259 2118.19 597.478 2118.69 598.701L2121.93 597.382C2122.44 598.626 2122.93 599.874 2123.41 601.128L2120.15 602.385C2120.62 603.617 2121.08 604.854 2121.53 606.096L2124.82 604.903C2125.28 606.165 2125.73 607.431 2126.16 608.702L2122.85 609.831C2123.27 611.081 2123.68 612.335 2124.09 613.593L2127.42 612.529C2127.83 613.809 2128.22 615.093 2128.61 616.381L2125.25 617.379C2125.63 618.643 2125.99 619.911 2126.34 621.183L2129.72 620.251C2130.07 621.546 2130.42 622.844 2130.75 624.147L2127.36 625.011C2127.69 626.29 2128 627.573 2128.3 628.86L2131.71 628.063C2132.01 629.368 2132.31 630.678 2132.58 631.991L2129.16 632.719C2129.44 634.01 2129.7 635.304 2129.95 636.602L2133.38 635.942C2133.64 637.26 2133.88 638.582 2134.11 639.908L2130.66 640.499C2130.88 641.797 2131.09 643.098 2131.28 644.402L2134.75 643.88C2134.95 645.208 2135.13 646.539 2135.31 647.874L2131.84 648.326C2132.01 649.634 2132.16 650.944 2132.31 652.258L2135.79 651.875C2135.93 653.206 2136.07 654.54 2136.19 655.878L2132.7 656.191C2132.82 657.506 2132.93 658.823 2133.02 660.143L2136.51 659.9C2136.6 661.237 2136.68 662.578 2136.75 663.922L2133.25 664.096C2133.32 665.409 2133.37 666.725 2133.41 668.045L2136.91 667.94Z" stroke="#1F3B50" stroke-width="7" stroke-dasharray="4 4"/>
</g>
<defs>
<clipPath id="clip0_2006_21">
<rect width="1920" height="1266" fill="white"/>
</clipPath>
</defs>
</svg>
