<svg width="1920" height="936" viewBox="0 0 1920 936" fill="none" xmlns="http://www.w3.org/2000/svg">
<g clip-path="url(#clip0_1_451)">
<rect width="1920" height="936" fill="white"/>
<path d="M467.583 438.913C882.844 660.407 582.707 977.628 380.732 1108.55L156.822 1124.93L-182.651 1102.1L-213.479 818.308C-159.484 599.554 52.3221 217.419 467.583 438.913Z" fill="#1F3B50" fill-opacity="0.08"/>
<path d="M413.909 993.94C413.949 995.283 413.976 996.628 413.99 997.976L410.49 998.011C410.496 998.673 410.5 999.336 410.5 1000C410.5 1000.66 410.496 1001.33 410.49 1001.99L413.99 1002.02C413.976 1003.37 413.949 1004.72 413.909 1006.06L410.411 1005.96C410.372 1007.27 410.319 1008.59 410.254 1009.9L413.749 1010.08C413.683 1011.42 413.602 1012.76 413.509 1014.1L410.018 1013.86C409.925 1015.18 409.82 1016.49 409.702 1017.81L413.188 1018.12C413.068 1019.46 412.934 1020.79 412.788 1022.13L409.309 1021.74C409.164 1023.06 409.006 1024.37 408.836 1025.67L412.307 1026.13C412.133 1027.46 411.945 1028.79 411.745 1030.12L408.284 1029.6C408.087 1030.9 407.878 1032.2 407.655 1033.5L411.105 1034.09C410.878 1035.42 410.638 1036.74 410.384 1038.06L406.947 1037.4C406.698 1038.7 406.436 1039.99 406.161 1041.28L409.584 1042.01C409.305 1043.32 409.013 1044.63 408.707 1045.94L405.299 1045.14C404.998 1046.43 404.685 1047.71 404.359 1048.99L407.751 1049.85C407.419 1051.16 407.074 1052.45 406.717 1053.75L403.343 1052.82C402.992 1054.09 402.628 1055.36 402.252 1056.62L405.607 1057.62C405.224 1058.91 404.828 1060.19 404.42 1061.47L401.086 1060.41C400.684 1061.67 400.271 1062.92 399.845 1064.17L403.158 1065.3C402.725 1066.57 402.28 1067.84 401.822 1069.1L398.532 1067.9C398.081 1069.15 397.619 1070.38 397.145 1071.62L400.412 1072.87C399.929 1074.13 399.435 1075.37 398.929 1076.62L395.687 1075.3C395.189 1076.52 394.679 1077.74 394.158 1078.95L397.374 1080.34C396.844 1081.57 396.302 1082.8 395.749 1084.02L392.56 1082.58C392.015 1083.78 391.459 1084.98 390.892 1086.17L394.053 1087.68C393.476 1088.89 392.888 1090.1 392.289 1091.3L389.156 1089.74C388.567 1090.92 387.967 1092.1 387.355 1093.27L390.458 1094.89C389.836 1096.08 389.203 1097.26 388.559 1098.44L385.487 1096.76C384.854 1097.92 384.209 1099.08 383.554 1100.23L386.595 1101.96C385.93 1103.13 385.254 1104.29 384.568 1105.44L381.56 1103.65C380.884 1104.79 380.197 1105.92 379.5 1107.04L382.475 1108.89C381.768 1110.03 381.051 1111.16 380.322 1112.29L377.381 1110.39C376.665 1111.5 375.939 1112.61 375.203 1113.71L378.109 1115.66C377.361 1116.77 376.603 1117.88 375.834 1118.99L372.962 1116.98C372.207 1118.07 371.442 1119.15 370.666 1120.22L373.503 1122.27C372.717 1123.36 371.921 1124.44 371.114 1125.51L368.314 1123.41C367.521 1124.47 366.717 1125.52 365.903 1126.57L368.666 1128.72C367.843 1129.78 367.01 1130.83 366.167 1131.88L363.442 1129.68C362.613 1130.71 361.774 1131.73 360.926 1132.75L363.614 1134.99C362.754 1136.02 361.883 1137.05 361.004 1138.07L358.354 1135.78C357.491 1136.78 356.619 1137.77 355.737 1138.76L358.348 1141.09C357.455 1142.09 356.553 1143.09 355.641 1144.07L353.069 1141.7C352.171 1142.67 351.263 1143.64 350.347 1144.6L352.879 1147.02C351.953 1147.99 351.019 1148.95 350.077 1149.9L347.585 1147.45C346.656 1148.39 345.719 1149.32 344.773 1150.25L347.225 1152.75C346.266 1153.69 345.298 1154.62 344.321 1155.55L341.91 1153.02C340.953 1153.93 339.987 1154.83 339.013 1155.73L341.383 1158.3C340.396 1159.21 339.401 1160.11 338.397 1161L336.069 1158.39C335.079 1159.27 334.081 1160.15 333.075 1161.02L335.362 1163.67C334.348 1164.54 333.326 1165.41 332.297 1166.27L330.051 1163.59C329.037 1164.43 328.014 1165.28 326.984 1166.11L329.187 1168.83C328.142 1169.68 327.09 1170.52 326.03 1171.35L323.869 1168.6C322.83 1169.41 321.783 1170.22 320.728 1171.02L322.847 1173.81C321.779 1174.62 320.704 1175.42 319.622 1176.22L317.546 1173.4C316.478 1174.19 315.403 1174.97 314.32 1175.74L316.353 1178.59C315.262 1179.37 314.165 1180.14 313.06 1180.9L311.071 1178.02C309.982 1178.77 308.886 1179.52 307.784 1180.26L309.73 1183.17C308.613 1183.91 307.489 1184.65 306.357 1185.39L304.455 1182.45C303.345 1183.17 302.228 1183.88 301.105 1184.58L302.964 1187.55C301.828 1188.26 300.686 1188.96 299.537 1189.66L297.722 1186.67C296.587 1187.36 295.446 1188.04 294.299 1188.71L296.07 1191.73C294.914 1192.41 293.752 1193.08 292.584 1193.74L290.857 1190.7C289.706 1191.35 288.549 1192 287.385 1192.63L289.068 1195.7C287.89 1196.35 286.706 1196.99 285.516 1197.62L283.877 1194.53C282.707 1195.14 281.531 1195.76 280.349 1196.36L281.943 1199.48C280.751 1200.09 279.552 1200.69 278.348 1201.29L276.798 1198.15C275.609 1198.73 274.414 1199.31 273.213 1199.89L274.718 1203.05C273.506 1203.62 272.289 1204.19 271.067 1204.75L269.606 1201.57C268.404 1202.13 267.197 1202.67 265.984 1203.21L267.4 1206.41C266.172 1206.95 264.938 1207.48 263.7 1208.01L262.329 1204.79C261.108 1205.31 259.882 1205.82 258.651 1206.33L259.977 1209.57C258.738 1210.07 257.494 1210.57 256.245 1211.06L254.964 1207.81C253.731 1208.29 252.492 1208.77 251.248 1209.24L252.484 1212.51C251.226 1212.99 249.963 1213.45 248.695 1213.91L247.504 1210.62C246.262 1211.07 245.014 1211.51 243.762 1211.95L244.907 1215.25C243.64 1215.69 242.368 1216.12 241.091 1216.55L239.991 1213.23C238.729 1213.64 237.463 1214.05 236.192 1214.46L237.247 1217.79C235.971 1218.2 234.691 1218.59 233.407 1218.98L232.397 1215.63C231.128 1216.01 229.856 1216.38 228.579 1216.75L229.544 1220.11C228.251 1220.48 226.955 1220.85 225.654 1221.2L224.735 1217.82C223.457 1218.17 222.175 1218.51 220.889 1218.84L221.764 1222.23C220.467 1222.57 219.166 1222.89 217.861 1223.21L217.032 1219.81C215.742 1220.13 214.448 1220.43 213.15 1220.73L213.934 1224.14C212.626 1224.44 211.314 1224.74 209.998 1225.02L209.26 1221.6C207.967 1221.88 206.67 1222.15 205.37 1222.41L206.063 1225.84C204.748 1226.11 203.429 1226.36 202.106 1226.61L201.458 1223.17C200.151 1223.42 198.841 1223.66 197.527 1223.89L198.13 1227.34C196.813 1227.57 195.493 1227.79 194.169 1228L193.611 1224.55C192.303 1224.76 190.991 1224.96 189.676 1225.16L190.189 1228.62C188.858 1228.82 187.525 1229 186.188 1229.18L185.72 1225.72C184.409 1225.89 183.094 1226.06 181.776 1226.22L182.198 1229.7C180.869 1229.86 179.537 1230.01 178.201 1230.16L177.823 1226.68C176.503 1226.82 175.179 1226.96 173.853 1227.08L174.186 1230.57C172.85 1230.69 171.51 1230.81 170.168 1230.92L169.88 1227.44C168.562 1227.55 167.241 1227.65 165.918 1227.74L166.162 1231.23C164.823 1231.32 163.482 1231.41 162.138 1231.48L161.939 1227.99C160.61 1228.07 159.279 1228.13 157.945 1228.19L158.099 1231.69C156.764 1231.75 155.427 1231.8 154.087 1231.84L153.977 1228.34C152.653 1228.38 151.326 1228.42 149.997 1228.44L150.063 1231.94C148.719 1231.97 147.373 1231.99 146.024 1231.99L146.002 1228.49C145.335 1228.5 144.668 1228.5 144 1228.5C143.331 1228.5 142.664 1228.5 141.997 1228.49L141.975 1231.99C140.626 1231.99 139.28 1231.97 137.936 1231.94L138.002 1228.44C136.673 1228.42 135.346 1228.38 134.022 1228.34L133.911 1231.84C132.572 1231.8 131.235 1231.75 129.9 1231.69L130.054 1228.19C128.72 1228.13 127.389 1228.07 126.06 1227.99L125.86 1231.48C124.517 1231.41 123.176 1231.32 121.837 1231.23L122.081 1227.74C120.757 1227.65 119.437 1227.55 118.119 1227.44L117.831 1230.92C116.489 1230.81 115.149 1230.69 113.813 1230.57L114.146 1227.08C112.82 1226.96 111.496 1226.82 110.176 1226.68L109.798 1230.16C108.462 1230.01 107.13 1229.86 105.801 1229.7L106.223 1226.22C104.905 1226.06 103.59 1225.89 102.279 1225.72L101.811 1229.18C100.474 1229 99.1406 1228.82 97.8103 1228.62L98.3232 1225.16C97.0079 1224.96 95.696 1224.76 94.3875 1224.55L93.8296 1228C92.5061 1227.79 91.186 1227.57 89.8694 1227.34L90.4722 1223.89C89.1584 1223.66 87.8481 1223.42 86.5414 1223.17L85.8932 1226.61C84.5704 1226.36 83.2513 1226.11 81.9359 1225.84L82.6293 1222.41C81.329 1222.15 80.0323 1221.88 78.7394 1221.6L78.0009 1225.02C76.685 1224.73 75.373 1224.44 74.0649 1224.14L74.8487 1220.73C73.5509 1220.43 72.2571 1220.13 70.9673 1219.81L70.1381 1223.21C68.8332 1222.89 67.5323 1222.57 66.2355 1222.23L67.1098 1218.84C65.8238 1218.51 64.5419 1218.17 63.2642 1217.82L62.3447 1221.2C61.044 1220.85 59.7475 1220.48 58.4555 1220.11L59.4204 1216.75C58.1434 1216.38 56.8708 1216.01 55.6025 1215.63L54.5924 1218.98C53.3078 1218.59 52.0277 1218.2 50.7522 1217.79L51.8074 1214.46C50.5365 1214.05 49.2701 1213.64 48.0084 1213.23L46.9078 1216.55C45.6311 1216.12 44.359 1215.69 43.0916 1215.25L44.2374 1211.95C42.9851 1211.51 41.7375 1211.07 40.4948 1210.62L39.304 1213.91C38.0362 1213.45 36.7734 1212.99 35.5155 1212.51L36.7515 1209.24C35.5075 1208.77 34.2685 1208.29 33.0346 1207.81L31.7536 1211.06C30.5047 1210.57 29.261 1210.07 28.0224 1209.57L29.3483 1206.33C28.1171 1205.82 26.8911 1205.31 25.6704 1204.79L24.2995 1208.01C23.0608 1207.48 21.8274 1206.95 20.5995 1206.41L22.0153 1203.21C20.8023 1202.67 19.5948 1202.12 18.3928 1201.57L16.9323 1204.75C15.7097 1204.19 14.4927 1203.62 13.2814 1203.05L14.7866 1199.89C13.5856 1199.31 12.3904 1198.73 11.2009 1198.15L9.65108 1201.29C8.44676 1200.69 7.24829 1200.09 6.05576 1199.48L7.65004 1196.36C6.46814 1195.76 5.29218 1195.14 4.12224 1194.53L2.48358 1197.62C1.29318 1196.99 0.108894 1196.35 -1.06915 1195.7L0.613892 1192.63C-0.5494 1192 -1.7065 1191.35 -2.85734 1190.7L-4.58452 1193.74C-5.75306 1193.08 -6.91525 1192.41 -8.071 1191.73L-6.2998 1188.71C-7.44724 1188.04 -8.58821 1187.36 -9.7226 1186.67L-11.5378 1189.66C-12.6869 1188.96 -13.8293 1188.26 -14.965 1187.55L-13.106 1184.58C-14.2293 1183.88 -15.3459 1183.17 -16.4557 1182.45L-18.3583 1185.39C-19.4894 1184.65 -20.6136 1183.91 -21.7308 1183.17L-19.7846 1180.26C-20.8873 1179.52 -21.983 1178.77 -23.0717 1178.02L-25.0611 1180.9C-26.1657 1180.14 -27.2632 1179.37 -28.3535 1178.59L-26.3209 1175.74C-27.4036 1174.97 -28.4791 1174.19 -29.5471 1173.4L-31.6227 1176.22C-32.7051 1175.42 -33.78 1174.62 -34.8475 1173.81L-32.7291 1171.02C-33.7835 1170.22 -34.8305 1169.41 -35.8698 1168.59L-38.0306 1171.35C-39.0907 1170.52 -40.1431 1169.68 -41.1876 1168.83L-38.9844 1166.11C-40.0148 1165.28 -41.0374 1164.43 -42.0522 1163.59L-44.2975 1166.27C-45.3273 1165.41 -46.3491 1164.54 -47.3628 1163.67L-45.0757 1161.02C-46.0818 1160.15 -47.0797 1159.27 -48.0694 1158.39L-50.3981 1161C-51.4016 1160.11 -52.3968 1159.21 -53.3837 1158.3L-51.0137 1155.73C-51.9879 1154.83 -52.9537 1153.93 -53.9111 1153.02L-56.3221 1155.55C-57.2987 1154.62 -58.2666 1153.69 -59.2259 1152.75L-56.7742 1150.25C-57.72 1149.32 -58.6571 1148.39 -59.5854 1147.45L-62.0774 1149.9C-63.0203 1148.95 -63.9543 1147.99 -64.8794 1147.02L-62.3474 1144.6C-63.264 1143.64 -64.1716 1142.67 -65.0701 1141.7L-67.6417 1144.07C-68.5533 1143.09 -69.4558 1142.09 -70.3491 1141.09L-67.7383 1138.76C-68.6198 1137.77 -69.4921 1136.78 -70.3551 1135.78L-73.0046 1138.07C-73.8843 1137.05 -74.7545 1136.02 -75.6152 1134.99L-72.9273 1132.75C-73.7752 1131.73 -74.6136 1130.71 -75.4424 1129.68L-78.1681 1131.88C-79.0108 1130.83 -79.8438 1129.78 -80.6668 1128.72L-77.9038 1126.57C-78.7175 1125.52 -79.5214 1124.47 -80.3153 1123.41L-83.1152 1125.51C-83.9213 1124.44 -84.7174 1123.36 -85.5033 1122.27L-82.6671 1120.22C-83.4425 1119.15 -84.2077 1118.07 -84.9628 1116.98L-87.8346 1118.99C-88.6036 1117.88 -89.3622 1116.77 -90.1103 1115.66L-87.2033 1113.71C-87.9398 1112.61 -88.666 1111.5 -89.3816 1110.39L-92.323 1112.29C-93.0513 1111.16 -93.7691 1110.03 -94.476 1108.89L-91.501 1107.04C-92.1982 1105.92 -92.8847 1104.79 -93.5604 1103.65L-96.5685 1105.44C-97.2551 1104.29 -97.9307 1103.13 -98.5954 1101.96L-95.5551 1100.23C-96.2103 1099.08 -96.8545 1097.92 -97.4877 1096.76L-100.559 1098.44C-101.204 1097.26 -101.837 1096.08 -102.458 1094.89L-99.356 1093.27C-99.9676 1092.1 -100.568 1090.92 -101.157 1089.74L-104.289 1091.3C-104.889 1090.1 -105.477 1088.89 -106.054 1087.68L-102.893 1086.17C-103.46 1084.98 -104.016 1083.78 -104.56 1082.58L-107.749 1084.02C-108.303 1082.8 -108.845 1081.57 -109.375 1080.34L-106.159 1078.95C-106.68 1077.74 -107.19 1076.52 -107.688 1075.3L-110.929 1076.62C-111.436 1075.37 -111.93 1074.13 -112.412 1072.87L-109.146 1071.62C-109.62 1070.38 -110.082 1069.15 -110.532 1067.9L-113.823 1069.1C-114.28 1067.84 -114.726 1066.57 -115.159 1065.3L-111.846 1064.17C-112.271 1062.92 -112.685 1061.67 -113.086 1060.41L-116.421 1061.47C-116.829 1060.19 -117.225 1058.91 -117.608 1057.62L-114.253 1056.62C-114.629 1055.36 -114.993 1054.09 -115.344 1052.82L-118.718 1053.75C-119.075 1052.45 -119.42 1051.16 -119.751 1049.85L-116.36 1048.99C-116.686 1047.71 -116.999 1046.43 -117.3 1045.14L-120.708 1045.94C-121.013 1044.63 -121.306 1043.32 -121.585 1042.01L-118.162 1041.28C-118.437 1039.99 -118.699 1038.7 -118.948 1037.4L-122.385 1038.06C-122.638 1036.74 -122.879 1035.42 -123.106 1034.09L-119.656 1033.5C-119.878 1032.2 -120.088 1030.9 -120.285 1029.6L-123.746 1030.12C-123.946 1028.79 -124.133 1027.46 -124.307 1026.13L-120.837 1025.67C-121.007 1024.37 -121.165 1023.06 -121.31 1021.74L-124.789 1022.12C-124.935 1020.79 -125.069 1019.46 -125.189 1018.12L-121.703 1017.81C-121.821 1016.49 -121.926 1015.18 -122.018 1013.86L-125.51 1014.1C-125.603 1012.76 -125.683 1011.42 -125.75 1010.08L-122.255 1009.9C-122.32 1008.59 -122.372 1007.27 -122.412 1005.96L-125.91 1006.06C-125.95 1004.72 -125.977 1003.37 -125.99 1002.02L-122.49 1001.99C-122.497 1001.33 -122.5 1000.66 -122.5 1000C-122.5 999.336 -122.497 998.673 -122.49 998.01L-125.99 997.976C-125.977 996.628 -125.95 995.282 -125.91 993.94L-122.412 994.044C-122.372 992.725 -122.32 991.409 -122.254 990.095L-125.75 989.921C-125.683 988.578 -125.603 987.237 -125.51 985.899L-122.018 986.143C-121.926 984.823 -121.821 983.505 -121.703 982.191L-125.189 981.878C-125.069 980.54 -124.935 979.206 -124.789 977.875L-121.31 978.258C-121.165 976.944 -121.007 975.633 -120.837 974.326L-124.307 973.873C-124.133 972.539 -123.946 971.208 -123.746 969.88L-120.285 970.402C-120.088 969.098 -119.878 967.796 -119.656 966.499L-123.106 965.908C-122.878 964.582 -122.638 963.26 -122.385 961.941L-118.948 962.602C-118.699 961.304 -118.437 960.01 -118.162 958.719L-121.585 957.99C-121.306 956.677 -121.013 955.368 -120.708 954.063L-117.3 954.859C-116.999 953.572 -116.686 952.29 -116.36 951.011L-119.751 950.146C-119.419 948.844 -119.075 947.545 -118.718 946.251L-115.344 947.183C-114.993 945.911 -114.629 944.643 -114.253 943.379L-117.608 942.381C-117.225 941.093 -116.829 939.809 -116.421 938.529L-113.086 939.592C-112.685 938.334 -112.271 937.08 -111.846 935.831L-115.159 934.702C-114.726 933.431 -114.28 932.165 -113.823 930.903L-110.532 932.096C-110.082 930.854 -109.62 929.617 -109.146 928.384L-112.412 927.128C-111.93 925.874 -111.436 924.625 -110.929 923.381L-107.688 924.701C-107.19 923.478 -106.68 922.259 -106.159 921.046L-109.374 919.664C-108.845 918.431 -108.303 917.202 -107.749 915.978L-104.56 917.421C-104.016 916.217 -103.46 915.019 -102.893 913.825L-106.054 912.323C-105.477 911.11 -104.889 909.902 -104.289 908.7L-101.157 910.262C-100.568 909.08 -99.9675 907.904 -99.3559 906.733L-102.458 905.113C-101.837 903.922 -101.204 902.737 -100.559 901.558L-97.4876 903.235C-96.8544 902.076 -96.2102 900.922 -95.555 899.773L-98.5953 898.039C-97.9307 896.874 -97.255 895.714 -96.5684 894.559L-93.5603 896.349C-92.8846 895.213 -92.1981 894.082 -91.5009 892.957L-94.4759 891.113C-93.769 889.973 -93.0513 888.838 -92.3229 887.708L-89.3815 889.605C-88.6659 888.495 -87.9398 887.391 -87.2032 886.293L-90.1102 884.344C-89.3621 883.228 -88.6035 882.118 -87.8345 881.015L-84.9627 883.015C-84.2076 881.931 -83.4424 880.853 -82.667 879.781L-85.5032 877.73C-84.7173 876.643 -83.9213 875.562 -83.1151 874.488L-80.3152 876.588C-79.5213 875.529 -78.7174 874.477 -77.9037 873.43L-80.6668 871.282C-79.8437 870.223 -79.0107 869.171 -78.168 868.125L-75.4423 870.32C-74.6135 869.291 -73.7751 868.268 -72.9272 867.252L-75.6151 865.01C-74.7545 863.978 -73.8842 862.952 -73.0045 861.933L-70.355 864.22C-69.492 863.22 -68.6197 862.227 -67.7382 861.239L-70.349 858.908C-69.4558 857.908 -68.5533 856.914 -67.6416 855.927L-65.07 858.301C-64.1715 857.328 -63.2639 856.361 -62.3473 855.4L-64.8793 852.984C-63.9542 852.015 -63.0202 851.052 -62.0773 850.096L-59.5853 852.554C-58.657 851.612 -57.7199 850.677 -56.7741 849.749L-59.2258 847.251C-58.2666 846.31 -57.2986 845.375 -56.322 844.447L-53.9111 846.984C-52.9536 846.074 -51.9878 845.171 -51.0136 844.275L-53.3836 841.699C-52.3967 840.791 -51.4015 839.89 -50.398 838.996L-48.0693 841.608C-47.0796 840.726 -46.0817 839.851 -45.0756 838.983L-47.3627 836.333C-46.349 835.458 -45.3272 834.59 -44.2974 833.729L-42.0521 836.414C-41.0373 835.565 -40.0147 834.723 -38.9843 833.888L-41.1875 831.169C-40.143 830.323 -39.0906 829.484 -38.0305 828.652L-35.8697 831.405C-34.8304 830.589 -33.7834 829.781 -32.729 828.979L-34.8473 826.193C-33.7799 825.381 -32.705 824.577 -31.6226 823.78L-29.547 826.598C-28.479 825.811 -27.4035 825.032 -26.3208 824.259L-28.3534 821.41C-27.2631 820.632 -26.1656 819.862 -25.061 819.099L-23.0716 821.978C-21.9829 821.226 -20.8872 820.481 -19.7845 819.743L-21.7307 816.834C-20.6135 816.087 -19.4893 815.347 -18.3582 814.614L-16.4556 817.552C-15.3458 816.833 -14.2292 816.122 -13.1059 815.418L-14.9649 812.452C-13.8292 811.74 -12.6868 811.036 -11.5377 810.339L-9.7225 813.331C-8.5881 812.643 -7.44714 811.962 -6.29968 811.289L-8.07089 808.27C-6.91515 807.592 -5.75297 806.922 -4.58443 806.259L-2.85725 809.303C-1.70641 808.65 -0.549309 808.004 0.613991 807.366L-1.06905 804.298C0.108994 803.651 1.29327 803.013 2.48367 802.382L4.12233 805.475C5.29227 804.855 6.46823 804.243 7.65015 803.638L6.05588 800.522C7.24841 799.912 8.44687 799.309 9.65118 798.715L11.201 801.853C12.3905 801.265 13.5857 800.686 14.7867 800.114L13.2816 796.954C14.4928 796.377 15.7098 795.808 16.9324 795.246L18.3929 798.427C19.5949 797.875 20.8024 797.331 22.0154 796.794L20.5996 793.593C21.8275 793.05 23.0609 792.515 24.2997 791.988L25.6705 795.208C26.8912 794.688 28.1172 794.177 29.3484 793.673L28.0226 790.433C29.2611 789.926 30.5049 789.427 31.7538 788.936L33.0348 792.193C34.2687 791.708 35.5077 791.231 36.7516 790.761L35.5157 787.487C36.7736 787.012 38.0364 786.545 39.3042 786.086L40.4949 789.378C41.7377 788.928 42.9853 788.486 44.2376 788.052L43.0918 784.745C44.3592 784.306 45.6313 783.875 46.908 783.452L48.0086 786.775C49.2703 786.357 50.5367 785.947 51.8076 785.545L50.7524 782.208C52.028 781.804 53.3081 781.409 54.5926 781.022L55.6028 784.373C56.871 783.991 58.1437 783.616 59.4206 783.25L58.4557 779.886C59.7478 779.515 61.0442 779.153 62.3449 778.799L63.2645 782.176C64.5422 781.828 65.8241 781.488 67.1101 781.156L66.2357 777.767C67.5325 777.432 68.8334 777.106 70.1384 776.788L70.9675 780.188C72.2574 779.874 73.5512 779.567 74.849 779.269L74.0652 775.858C75.3733 775.557 76.6853 775.265 78.0012 774.981L78.7397 778.402C80.0326 778.123 81.3292 777.852 82.6296 777.589L81.9362 774.159C83.2516 773.893 84.5707 773.635 85.8934 773.386L86.5416 776.825C87.8483 776.579 89.1587 776.341 90.4725 776.111L89.8696 772.664C91.1863 772.433 92.5064 772.211 93.8299 771.998L94.3878 775.453C95.6963 775.242 97.0082 775.039 98.3234 774.844L97.8106 771.381C99.1409 771.184 100.474 770.996 101.811 770.816L102.279 774.284C103.591 774.107 104.906 773.939 106.224 773.778L105.801 770.304C107.13 770.142 108.463 769.989 109.798 769.844L110.176 773.323C111.496 773.18 112.82 773.045 114.146 772.918L113.813 769.434C115.15 769.306 116.489 769.187 117.831 769.076L118.119 772.564C119.437 772.455 120.758 772.354 122.081 772.262L121.838 768.77C123.176 768.677 124.517 768.592 125.861 768.515L126.06 772.01C127.389 771.934 128.721 771.866 130.055 771.807L129.9 768.311C131.235 768.252 132.572 768.201 133.912 768.159L134.022 771.657C135.346 771.615 136.673 771.582 138.002 771.557L137.936 768.057C139.28 768.032 140.626 768.015 141.975 768.006L141.997 771.506C142.664 771.502 143.332 771.5 144 771.5C144.668 771.5 145.336 771.502 146.003 771.506L146.025 768.006C147.373 768.015 148.72 768.032 150.063 768.057L149.997 771.557C151.326 771.582 152.653 771.615 153.977 771.657L154.088 768.159C155.427 768.201 156.765 768.252 158.099 768.311L157.945 771.807C159.279 771.866 160.611 771.934 161.94 772.01L162.139 768.515C163.483 768.592 164.824 768.677 166.162 768.77L165.918 772.262C167.242 772.354 168.562 772.455 169.88 772.564L170.169 769.076C171.511 769.187 172.85 769.306 174.186 769.434L173.853 772.918C175.18 773.045 176.503 773.18 177.824 773.323L178.202 769.844C179.537 769.989 180.869 770.142 182.199 770.304L181.776 773.778C183.094 773.939 184.409 774.107 185.721 774.284L186.188 770.816C187.525 770.996 188.859 771.184 190.189 771.382L189.676 774.844C190.991 775.039 192.303 775.242 193.612 775.453L194.17 771.998C195.493 772.211 196.813 772.433 198.13 772.664L197.527 776.111C198.841 776.341 200.151 776.579 201.458 776.825L202.106 773.386C203.429 773.635 204.748 773.893 206.063 774.159L205.37 777.589C206.67 777.852 207.967 778.123 209.26 778.402L209.998 774.981C211.314 775.265 212.626 775.557 213.934 775.858L213.151 779.269C214.448 779.567 215.742 779.874 217.032 780.188L217.861 776.788C219.166 777.106 220.467 777.432 221.764 777.767L220.889 781.156C222.175 781.488 223.457 781.828 224.735 782.176L225.655 778.799C226.955 779.153 228.252 779.515 229.544 779.886L228.579 783.25C229.856 783.616 231.128 783.991 232.397 784.373L233.407 781.022C234.691 781.409 235.972 781.804 237.247 782.208L236.192 785.545C237.463 785.947 238.729 786.357 239.991 786.775L241.091 783.452C242.368 783.875 243.64 784.306 244.908 784.745L243.762 788.052C245.014 788.486 246.262 788.928 247.504 789.378L248.695 786.086C249.963 786.545 251.226 787.012 252.484 787.487L251.248 790.761C252.492 791.231 253.731 791.708 254.965 792.193L256.246 788.936C257.495 789.427 258.738 789.927 259.977 790.434L258.651 793.673C259.882 794.177 261.108 794.688 262.329 795.208L263.7 791.988C264.938 792.515 266.172 793.05 267.4 793.593L265.984 796.794C267.197 797.331 268.404 797.875 269.606 798.427L271.067 795.246C272.29 795.808 273.507 796.377 274.718 796.954L273.213 800.114C274.414 800.686 275.609 801.265 276.798 801.853L278.348 798.715C279.553 799.309 280.751 799.912 281.944 800.522L280.349 803.638C281.531 804.243 282.707 804.855 283.877 805.475L285.516 802.382C286.706 803.013 287.89 803.651 289.068 804.298L287.385 807.366C288.549 808.004 289.706 808.65 290.857 809.303L292.584 806.259C293.752 806.922 294.915 807.592 296.07 808.27L294.299 811.289C295.447 811.962 296.587 812.643 297.722 813.331L299.537 810.339C300.686 811.036 301.829 811.74 302.964 812.452L301.105 815.418C302.229 816.122 303.345 816.833 304.455 817.552L306.358 814.614C307.489 815.347 308.613 816.087 309.73 816.834L307.784 819.743C308.887 820.481 309.982 821.226 311.071 821.978L313.06 819.099C314.165 819.862 315.262 820.632 316.353 821.41L314.32 824.259C315.403 825.032 316.478 825.811 317.546 826.598L319.622 823.78C320.704 824.577 321.779 825.381 322.847 826.193L320.728 828.979C321.783 829.781 322.83 830.589 323.869 831.405L326.03 828.652C327.09 829.484 328.142 830.323 329.187 831.169L326.984 833.889C328.014 834.723 329.037 835.565 330.051 836.414L332.297 833.729C333.327 834.59 334.348 835.458 335.362 836.333L333.075 838.983C334.081 839.851 335.079 840.726 336.069 841.608L338.397 838.996C339.401 839.89 340.396 840.791 341.383 841.699L339.013 844.275C339.987 845.171 340.953 846.075 341.91 846.984L344.321 844.447C345.298 845.375 346.266 846.31 347.225 847.251L344.773 849.749C345.719 850.678 346.656 851.612 347.585 852.554L350.077 850.096C351.02 851.052 351.954 852.015 352.879 852.984L350.347 855.401C351.263 856.361 352.171 857.328 353.069 858.301L355.641 855.927C356.553 856.914 357.455 857.908 358.348 858.909L355.738 861.24C356.619 862.227 357.491 863.22 358.354 864.22L361.004 861.933C361.884 862.953 362.754 863.978 363.614 865.01L360.927 867.252C361.774 868.268 362.613 869.291 363.442 870.32L366.167 868.125C367.01 869.171 367.843 870.223 368.666 871.282L365.903 873.43C366.717 874.477 367.521 875.529 368.315 876.588L371.115 874.488C371.921 875.563 372.717 876.643 373.503 877.73L370.666 879.781C371.442 880.853 372.207 881.931 372.962 883.015L375.834 881.015C376.603 882.119 377.361 883.228 378.11 884.344L375.203 886.293C375.939 887.392 376.665 888.496 377.381 889.605L380.322 887.708C381.051 888.838 381.768 889.973 382.475 891.114L379.5 892.957C380.197 894.082 380.884 895.213 381.56 896.349L384.568 894.56C385.254 895.714 385.93 896.874 386.595 898.039L383.554 899.773C384.21 900.922 384.854 902.076 385.487 903.235L388.559 901.558C389.203 902.737 389.836 903.922 390.458 905.113L387.355 906.733C387.967 907.904 388.567 909.08 389.156 910.262L392.289 908.7C392.888 909.902 393.476 911.11 394.053 912.323L390.892 913.826C391.459 915.019 392.015 916.218 392.56 917.421L395.749 915.979C396.302 917.202 396.844 918.431 397.374 919.664L394.158 921.046C394.679 922.259 395.189 923.478 395.687 924.701L398.929 923.382C399.435 924.626 399.929 925.874 400.412 927.128L397.145 928.385C397.619 929.617 398.081 930.854 398.532 932.096L401.822 930.903C402.28 932.165 402.725 933.431 403.158 934.702L399.845 935.831C400.271 937.081 400.684 938.335 401.086 939.593L404.42 938.529C404.828 939.809 405.224 941.093 405.607 942.381L402.253 943.379C402.628 944.643 402.992 945.911 403.343 947.183L406.717 946.251C407.074 947.546 407.419 948.844 407.751 950.147L404.359 951.011C404.685 952.29 404.999 953.573 405.299 954.86L408.707 954.063C409.013 955.368 409.305 956.678 409.584 957.991L406.161 958.719C406.436 960.01 406.698 961.304 406.947 962.602L410.384 961.942C410.638 963.26 410.878 964.582 411.105 965.908L407.655 966.499C407.878 967.797 408.087 969.098 408.284 970.402L411.745 969.88C411.945 971.208 412.133 972.539 412.307 973.874L408.836 974.326C409.007 975.634 409.164 976.944 409.309 978.258L412.788 977.875C412.934 979.206 413.068 980.54 413.188 981.878L409.702 982.191C409.82 983.506 409.926 984.823 410.018 986.143L413.509 985.9C413.602 987.237 413.683 988.578 413.749 989.922L410.254 990.096C410.319 991.409 410.372 992.725 410.411 994.045L413.909 993.94Z" stroke="#E2AEA4" stroke-width="7" stroke-dasharray="4 4"/>
<path d="M1596.87 657.121C1145.62 523.414 1376.04 152.443 1547.65 -16.3294L1763.73 -77.284L2100.88 -123L2188 148.838C2178.98 373.977 2048.12 790.828 1596.87 657.121Z" fill="#E1B9B1" fill-opacity="0.37"/>
</g>
<defs>
<clipPath id="clip0_1_451">
<rect width="1920" height="936" fill="white"/>
</clipPath>
</defs>
</svg>
