<svg width="28" height="23" viewBox="0 0 28 23" fill="none" xmlns="http://www.w3.org/2000/svg">
<g clip-path="url(#clip0_1_92)">
<path d="M26.85 13.7169C26.529 13.4697 26.1552 13.3 25.7578 13.2211C25.3603 13.1422 24.9501 13.1563 24.559 13.2622L24.0527 13.3794C26.6016 11.0099 27.8906 8.66143 27.8906 6.3751C27.8906 3.40323 25.5012 0.98448 22.5633 0.98448C21.7347 0.979287 20.9164 1.16721 20.1731 1.53336C19.4298 1.8995 18.7821 2.43379 18.2813 3.09385C17.7804 2.43379 17.1327 1.8995 16.3894 1.53336C15.6461 1.16721 14.8278 0.979287 13.9992 0.98448C11.0613 0.98448 8.67188 3.40323 8.67188 6.3751C8.67188 7.7087 9.09727 9.01065 9.99492 10.4017C9.25911 10.5152 8.579 10.8614 8.0543 11.3896L5.33438 14.1095H1.875C1.43988 14.1095 1.02258 14.2823 0.714903 14.59C0.407226 14.8977 0.234375 15.315 0.234375 15.7501V20.4376C0.234375 20.8727 0.407226 21.29 0.714903 21.5977C1.02258 21.9054 1.43988 22.0782 1.875 22.0782H14.0625C14.1202 22.0782 14.1776 22.0712 14.2336 22.0571L21.7336 20.1821C21.7691 20.1727 21.8039 20.161 21.8379 20.147L26.3871 18.211L26.4258 18.1935C26.828 17.9926 27.1725 17.6926 27.4267 17.3218C27.681 16.951 27.8367 16.5216 27.8791 16.074C27.9216 15.6265 27.8494 15.1754 27.6693 14.7635C27.4893 14.3515 27.2073 13.9921 26.85 13.7192V13.7169ZM13.9992 2.39073C14.7725 2.38041 15.5313 2.60106 16.1784 3.02443C16.8256 3.4478 17.3317 4.05464 17.632 4.76729C17.685 4.89625 17.7751 5.00655 17.8909 5.08418C18.0067 5.16181 18.143 5.20325 18.2824 5.20325C18.4218 5.20325 18.5581 5.16181 18.6739 5.08418C18.7897 5.00655 18.8798 4.89625 18.9328 4.76729C19.2331 4.05464 19.7393 3.4478 20.3864 3.02443C21.0336 2.60106 21.7923 2.38041 22.5656 2.39073C24.6891 2.39073 26.4844 4.21534 26.4844 6.3751C26.4844 8.74698 24.5883 11.4142 21 14.0802L19.2574 14.481C19.4312 14.0199 19.4906 13.5235 19.4304 13.0344C19.3703 12.5454 19.1924 12.0782 18.9121 11.6729C18.6317 11.2677 18.2573 10.9365 17.8209 10.7077C17.3844 10.479 16.899 10.3595 16.4063 10.3595H11.6801C10.5891 8.91456 10.0781 7.6419 10.0781 6.3751C10.0781 4.21534 11.8734 2.39073 13.9992 2.39073ZM1.64063 20.4376V15.7501C1.64063 15.6879 1.66532 15.6283 1.70927 15.5844C1.75323 15.5404 1.81284 15.5157 1.875 15.5157H4.92188V20.672H1.875C1.81284 20.672 1.75323 20.6473 1.70927 20.6033C1.66532 20.5594 1.64063 20.4998 1.64063 20.4376ZM25.8141 16.922L21.3375 18.8286L13.9758 20.672H6.32813V15.1044L9.04805 12.3833C9.24351 12.1868 9.476 12.0311 9.73207 11.9251C9.98814 11.819 10.2627 11.7649 10.5398 11.7657H16.4063C16.8414 11.7657 17.2587 11.9386 17.5663 12.2463C17.874 12.5539 18.0469 12.9712 18.0469 13.4064C18.0469 13.8415 17.874 14.2588 17.5663 14.5665C17.2587 14.8741 16.8414 15.047 16.4063 15.047H13.125C12.9385 15.047 12.7597 15.1211 12.6278 15.2529C12.496 15.3848 12.4219 15.5636 12.4219 15.7501C12.4219 15.9366 12.496 16.1154 12.6278 16.2473C12.7597 16.3792 12.9385 16.4532 13.125 16.4532H16.875C16.9278 16.4533 16.9805 16.4474 17.032 16.4357L24.8836 14.6298L24.9117 14.6228C25.2072 14.5422 25.5221 14.5737 25.7958 14.7111C26.0696 14.8485 26.2829 15.0823 26.3948 15.3674C26.5067 15.6525 26.5093 15.969 26.4021 16.2559C26.2949 16.5428 26.0855 16.78 25.8141 16.922Z" fill="#1F3B50"/>
</g>
<defs>
<clipPath id="clip0_1_92">
<rect width="28" height="23" fill="white"/>
</clipPath>
</defs>
</svg>
